<svg width="22" height="24" viewBox="0 0 22 24" fill="none" xmlns="http://www.w3.org/2000/svg">
<path fill-rule="evenodd" clip-rule="evenodd" d="M18.3333 16.8C19.3058 16.8 20.2384 17.1793 20.9261 17.8544C21.6137 18.5295 22 19.4452 22 20.4C22 21.3548 21.6137 22.2705 20.9261 22.9456C20.2384 23.6207 19.3058 24 18.3333 24C17.3609 24 16.4282 23.6207 15.7406 22.9456C15.053 22.2705 14.6667 21.3548 14.6667 20.4C14.6667 19.4452 15.053 18.5295 15.7406 17.8544C16.4282 17.1793 17.3609 16.8 18.3333 16.8ZM15.2778 2.4C16.7365 2.4 18.1354 2.96893 19.1669 3.98162C20.1983 4.99432 20.7778 6.36783 20.7778 7.8C20.7778 9.23217 20.1983 10.6057 19.1669 11.6184C18.1354 12.6311 16.7365 13.2 15.2778 13.2H6.72222C5.91184 13.2 5.13465 13.5161 4.56162 14.0787C3.98859 14.6413 3.66667 15.4044 3.66667 16.2C3.66667 16.9956 3.98859 17.7587 4.56162 18.3213C5.13465 18.8839 5.91184 19.2 6.72222 19.2H12.2222C12.5464 19.2 12.8573 19.3264 13.0865 19.5515C13.3157 19.7765 13.4444 20.0817 13.4444 20.4C13.4444 20.7183 13.3157 21.0235 13.0865 21.2485C12.8573 21.4736 12.5464 21.6 12.2222 21.6H6.72222C5.26353 21.6 3.86458 21.0311 2.83313 20.0184C1.80168 19.0057 1.22222 17.6322 1.22222 16.2C1.22222 14.7678 1.80168 13.3943 2.83313 12.3816C3.86458 11.3689 5.26353 10.8 6.72222 10.8H15.2778C16.0882 10.8 16.8654 10.4839 17.4384 9.92132C18.0114 9.35871 18.3333 8.59565 18.3333 7.8C18.3333 7.00435 18.0114 6.24129 17.4384 5.67868C16.8654 5.11607 16.0882 4.8 15.2778 4.8H9.77778C9.45362 4.8 9.14275 4.67357 8.91354 4.44853C8.68433 4.22348 8.55556 3.91826 8.55556 3.6C8.55556 3.28174 8.68433 2.97652 8.91354 2.75147C9.14275 2.52643 9.45362 2.4 9.77778 2.4H15.2778ZM18.3333 19.2C18.0092 19.2 17.6983 19.3264 17.4691 19.5515C17.2399 19.7765 17.1111 20.0817 17.1111 20.4C17.1111 20.7183 17.2399 21.0235 17.4691 21.2485C17.6983 21.4736 18.0092 21.6 18.3333 21.6C18.6575 21.6 18.9684 21.4736 19.1976 21.2485C19.4268 21.0235 19.5556 20.7183 19.5556 20.4C19.5556 20.0817 19.4268 19.7765 19.1976 19.5515C18.9684 19.3264 18.6575 19.2 18.3333 19.2ZM3.66667 0C4.63913 0 5.57176 0.379285 6.25939 1.05442C6.94703 1.72955 7.33333 2.64522 7.33333 3.6C7.33333 4.55478 6.94703 5.47045 6.25939 6.14558C5.57176 6.82072 4.63913 7.2 3.66667 7.2C2.69421 7.2 1.76158 6.82072 1.07394 6.14558C0.386309 5.47045 0 4.55478 0 3.6C0 2.64522 0.386309 1.72955 1.07394 1.05442C1.76158 0.379285 2.69421 0 3.66667 0ZM3.66667 2.4C3.34251 2.4 3.03164 2.52643 2.80243 2.75147C2.57321 2.97652 2.44444 3.28174 2.44444 3.6C2.44444 3.91826 2.57321 4.22348 2.80243 4.44853C3.03164 4.67357 3.34251 4.8 3.66667 4.8C3.99082 4.8 4.3017 4.67357 4.53091 4.44853C4.76012 4.22348 4.88889 3.91826 4.88889 3.6C4.88889 3.28174 4.76012 2.97652 4.53091 2.75147C4.3017 2.52643 3.99082 2.4 3.66667 2.4Z" fill="#014296"/>
</svg>
