<svg width="24" height="24" viewBox="0 0 24 24" fill="none" xmlns="http://www.w3.org/2000/svg">
<path d="M13.6799 14.16C13.9346 14.16 14.1787 14.0588 14.3588 13.8788C14.5388 13.6988 14.6399 13.4546 14.6399 13.2V9.03837L15.3839 9.78237C15.5398 9.94257 15.746 10.0443 15.968 10.0705C16.19 10.0967 16.4142 10.0459 16.6031 9.92637C16.7234 9.84852 16.8246 9.74475 16.8996 9.62267C16.9745 9.50059 17.0211 9.36329 17.0361 9.22084C17.051 9.0784 17.0339 8.93441 16.986 8.79943C16.9381 8.66445 16.8606 8.54191 16.7591 8.44077L14.7695 6.45117C14.6267 6.30814 14.457 6.19468 14.2702 6.11726C14.0835 6.03985 13.8833 6 13.6811 6C13.479 6 13.2788 6.03985 13.092 6.11726C12.9053 6.19468 12.7356 6.30814 12.5927 6.45117L10.6031 8.44077C10.5036 8.54018 10.4271 8.66026 10.3791 8.79251C10.331 8.92476 10.3127 9.06595 10.3253 9.20608C10.3379 9.34621 10.3811 9.48186 10.4519 9.60343C10.5228 9.725 10.6194 9.82951 10.7351 9.90957C10.9303 10.0359 11.1634 10.0902 11.3943 10.063C11.6252 10.0359 11.8394 9.92896 11.9999 9.76077L12.7199 9.04077V13.2C12.7199 13.4546 12.8211 13.6988 13.0011 13.8788C13.1812 14.0588 13.4253 14.16 13.6799 14.16Z" fill="#014296"/>
<path d="M4.31995 16.8001C4.32211 17.4778 4.56323 18.1331 5.00088 18.6506C5.43853 19.1681 6.04466 19.5147 6.71264 19.6293C7.38061 19.744 8.06763 19.6194 8.65282 19.2775C9.238 18.9356 9.68386 18.3983 9.91195 17.7601H16.7999C17.0546 17.7601 17.2987 17.8612 17.4788 18.0412C17.6588 18.2213 17.7599 18.4655 17.7599 18.7201C17.7599 18.9747 17.8611 19.2189 18.0411 19.3989C18.2212 19.5789 18.4653 19.6801 18.7199 19.6801C18.9746 19.6801 19.2187 19.5789 19.3988 19.3989C19.5788 19.2189 19.6799 18.9747 19.6799 18.7201C19.6799 17.9562 19.3765 17.2237 18.8364 16.6836C18.2963 16.1435 17.5638 15.8401 16.7999 15.8401H9.91195C9.7687 15.4361 9.53708 15.0691 9.23398 14.766C8.93089 14.4629 8.56395 14.2313 8.15995 14.0881V7.20007C8.15995 6.43624 7.85652 5.70371 7.31641 5.1636C6.77631 4.6235 6.04377 4.32007 5.27995 4.32007C5.02534 4.32007 4.78116 4.42121 4.60112 4.60125C4.42109 4.78128 4.31995 5.02546 4.31995 5.28007C4.31995 5.53468 4.42109 5.77886 4.60112 5.95889C4.78116 6.13893 5.02534 6.24007 5.27995 6.24007C5.53455 6.24007 5.77873 6.34121 5.95877 6.52125C6.1388 6.70128 6.23995 6.94546 6.23995 7.20007V14.0881C5.67897 14.2864 5.19319 14.6536 4.84939 15.1392C4.50558 15.6249 4.32063 16.2051 4.31995 16.8001ZM7.19995 15.8401C7.38982 15.8401 7.57542 15.8964 7.73329 16.0019C7.89117 16.1073 8.01421 16.2573 8.08687 16.4327C8.15953 16.6081 8.17854 16.8011 8.1415 16.9874C8.10446 17.1736 8.01303 17.3446 7.87877 17.4789C7.74451 17.6131 7.57345 17.7046 7.38723 17.7416C7.20101 17.7787 7.00799 17.7597 6.83257 17.687C6.65715 17.6143 6.50722 17.4913 6.40174 17.3334C6.29625 17.1755 6.23995 16.9899 6.23995 16.8001C6.23995 16.5455 6.34109 16.3013 6.52112 16.1212C6.70116 15.9412 6.94534 15.8401 7.19995 15.8401Z" fill="#014296"/>
</svg>
