<svg width="40" height="40" viewBox="0 0 40 40" fill="none" xmlns="http://www.w3.org/2000/svg">
<path d="M13.2891 0.242184C6.1172 0.601559 0.812515 2.4375 0.117203 4.80468C0.0156401 5.14843 1.50623e-05 7.10156 0.0156401 20.1562L0.0390776 35.1172L0.210953 35.4844C0.820328 36.8125 2.96095 38.0078 6.10158 38.7812C13.2266 40.5312 23.3672 40.0156 28.3516 37.6484C29.7031 37.0078 30.4688 36.375 30.9141 35.5312L31.1328 35.1172V30.4453V25.7656L30.9453 25.6172C30.711 25.4297 30.461 25.4297 30.211 25.625C30.0235 25.7734 30.0156 25.8203 29.9844 26.7031C29.961 27.5859 29.9453 27.6484 29.7344 27.9609C29.461 28.3516 28.7891 28.8516 28.0078 29.2422C23.9219 31.2812 15.3594 31.9687 8.52345 30.8125C4.82033 30.1875 1.97658 29 1.35158 27.8203C1.17189 27.4766 1.17189 27.4453 1.17189 24.7969V22.1172L1.6797 22.4687C3.63283 23.8359 7.58595 24.8281 12.4219 25.1562C13.875 25.2578 17.2969 25.2578 18.75 25.1562C23.4922 24.8281 27.2735 23.8984 29.3672 22.5469C29.6797 22.3516 29.9453 22.1875 29.961 22.1875C29.9844 22.1875 30 22.5 30 22.8828C30 23.5469 30.0078 23.5937 30.2031 23.7422C30.461 23.9453 30.711 23.9531 30.9453 23.7578L31.1328 23.6094L31.1563 21.3047L31.1797 19.0078L31.711 18.9531C33.1172 18.8281 35.336 17.9609 35.5078 17.4766C35.6016 17.1953 35.4297 16.8672 35.1406 16.7656C34.9688 16.7031 34.8047 16.75 34.2422 17.0078C32.8281 17.6562 31.9688 17.8516 30.5078 17.8437C29.2891 17.8359 28.461 17.6641 27.3281 17.1875C25.5 16.4297 23.7266 14.6562 22.9688 12.8359C22.4688 11.6406 22.3906 11.1953 22.3906 9.60937C22.3906 8.36718 22.4141 8.07812 22.5625 7.55468C23.8203 3.01562 28.4219 0.398434 32.875 1.6875C34.2031 2.07031 35.3672 2.77343 36.4141 3.82031C37.5078 4.92187 38.1953 6.14062 38.6016 7.69531C38.8672 8.71093 38.8672 10.5078 38.6016 11.5156C38.2578 12.8281 37.7188 13.9219 36.9375 14.8594C36.625 15.2344 36.5313 15.4062 36.5313 15.6094C36.5313 15.9219 36.7813 16.1719 37.0938 16.1719C37.4844 16.1719 38.3672 15.0703 39.0078 13.7734C39.6328 12.5234 39.9141 11.4219 39.9766 9.96093C40.1563 5.79687 37.5391 2.03906 33.5 0.656246C32.5313 0.328121 31.75 0.203121 30.586 0.203121C28.9844 0.203121 27.8203 0.468746 26.4766 1.13281L25.8828 1.42187L24.875 1.17968C21.5391 0.374996 17.3906 0.0390587 13.2891 0.242184ZM18.0078 1.40625C19.6328 1.49218 21.0156 1.64062 22.461 1.88281C23.4063 2.03906 24.4688 2.25781 24.5235 2.3125C24.5391 2.32812 24.3594 2.51562 24.1172 2.72656C22.5313 4.1875 21.375 6.5 21.2031 8.59375C21.1719 8.96875 21.1172 9.21875 21.0625 9.21875C21.0156 9.21875 20.5235 9.27343 19.961 9.34375C18.5235 9.50781 14.3438 9.57812 12.6953 9.46093C5.46877 8.95312 0.351578 6.9375 1.28908 4.96875C2.35939 2.71875 10.4141 0.999996 18.0078 1.40625ZM2.89845 8.58593C5.25002 9.69531 8.56252 10.3594 13.125 10.6328C14.9297 10.7422 18.3438 10.6797 19.9922 10.5078C20.6172 10.4453 21.125 10.3984 21.1328 10.4141C21.1406 10.4219 21.2031 10.7656 21.2735 11.1719C21.5469 12.8203 22.3125 14.4609 23.4063 15.75L23.6797 16.0781L22.9922 16.2031C22.0547 16.375 20.1094 16.6172 18.836 16.7187C17.4766 16.8203 13.7735 16.8203 12.4141 16.7187C6.71877 16.2812 2.13283 14.8594 1.32814 13.2734C1.1797 12.9922 1.17189 12.8047 1.17189 10.2734V7.57812L1.63283 7.89062C1.88283 8.0625 2.45314 8.375 2.89845 8.58593ZM2.62502 15.7344C4.90627 16.8516 8.39064 17.6094 12.6172 17.8984C14.3125 18.0156 18.6094 17.9453 20.1953 17.7812C21.4141 17.6484 23.4453 17.3359 24.25 17.1484L24.711 17.0391L25.3516 17.4687C26.5078 18.2266 27.8438 18.7422 29.1172 18.9141C29.4922 18.9609 29.8516 19.0156 29.9063 19.0312C30.0547 19.0703 30.0235 20.0547 29.8516 20.4297C29.625 20.9375 28.9297 21.5 27.9453 21.9844C24.8828 23.4766 19.7422 24.2344 13.8672 24.0469C9.48439 23.9141 5.66408 23.1719 3.2422 21.9922C2.19533 21.4766 1.56252 21 1.33595 20.5312C1.1797 20.1953 1.17189 20.0781 1.17189 17.5156V14.8437L1.5547 15.1172C1.76564 15.2656 2.25002 15.5469 2.62502 15.7344ZM1.6172 29.7187C3.38283 30.9766 6.85939 31.9219 11.3281 32.3594C12.9922 32.5234 18.6797 32.4922 20.2735 32.3203C24.586 31.8359 27.6797 30.9766 29.5235 29.7344C29.75 29.5781 29.9531 29.4531 29.9688 29.4531C29.9844 29.4531 30 30.6406 30 32.0937C30 34.7109 30 34.7422 29.8203 35.0859C29.4297 35.8281 28.125 36.6016 26.2344 37.2187C19.7188 39.3594 8.64064 39.0625 3.3047 36.6016C2.31252 36.1484 1.58595 35.5859 1.32033 35.0625C1.1797 34.7891 1.17189 34.5781 1.17189 32.1094C1.17189 30.6484 1.18752 29.4531 1.21095 29.4531C1.23439 29.4531 1.41408 29.5703 1.6172 29.7187Z" fill="#2C459E"/>
<path d="M29.5703 3.94531C27.5313 4.32812 25.875 5.6875 25.1953 7.50781C25.0782 7.84375 25.0703 7.89062 25.1875 8.11719C25.3438 8.41406 25.6485 8.50781 25.9297 8.35156C26.0547 8.28125 26.25 8 26.4375 7.61719C26.9922 6.48438 28.086 5.5625 29.2891 5.20312C30.7266 4.78125 32.4141 5.14062 33.5469 6.10938L33.9219 6.42969L33.4532 6.64844C32.9063 6.89062 32.6875 7.20312 32.7657 7.60938C32.8282 7.92969 33.0782 8.16406 34.4063 9.13281C35.3125 9.78906 35.5313 9.92188 35.7735 9.92188C36.0782 9.92188 36.3594 9.77344 36.4844 9.53125C36.6016 9.3125 37.1094 6.75 37.1094 6.39062C37.1094 6.15625 37.0547 6.03125 36.8828 5.85156C36.5938 5.5625 36.2969 5.55469 35.6094 5.8125L35.1016 6.00781L34.6797 5.57812C33.3438 4.21875 31.4063 3.60156 29.5703 3.94531ZM35.6953 7.75C35.6094 8.14062 35.5391 8.46875 35.5235 8.47656C35.5157 8.48438 35.2266 8.28906 34.8907 8.03906C34.375 7.65625 34.2969 7.57031 34.4219 7.52344C34.5 7.49219 34.8203 7.375 35.1172 7.25781C35.4219 7.14062 35.7032 7.03906 35.75 7.03906C35.8125 7.03125 35.7891 7.25781 35.6953 7.75Z" fill="#2C459E"/>
<path d="M24.7656 9.42967C24.5391 9.6328 24.5 9.74999 24.2109 11.1328C24.0469 11.9453 23.9062 12.7031 23.9062 12.7969C23.9062 12.9062 24.0234 13.1015 24.1719 13.25C24.5 13.5781 24.7734 13.5937 25.4688 13.3203L25.9688 13.125L26.3672 13.5469C28.1797 15.5156 31.1562 15.9375 33.5234 14.5625C34.7891 13.8281 36.2109 11.875 35.9688 11.1953C35.8672 10.8906 35.5391 10.7265 35.2578 10.8281C35.0859 10.8828 34.9688 11.0547 34.6953 11.6016C34.125 12.7578 33.2031 13.5625 31.9531 13.9922C31.2188 14.2422 29.9375 14.25 29.2031 14.0078C28.5391 13.7812 27.8594 13.375 27.4766 12.9844L27.1719 12.6719L27.5312 12.5391C28.2344 12.2734 28.5 11.625 28.1016 11.164C27.9297 10.9609 26.7812 10.0781 25.9453 9.5078C25.4297 9.14842 25.1016 9.12499 24.7656 9.42967ZM26.2031 11.1484C26.4844 11.3515 26.7109 11.5391 26.7109 11.5625C26.7188 11.625 25.3125 12.1328 25.2656 12.0859C25.2422 12.0625 25.2812 11.7422 25.3594 11.3672C25.4531 10.875 25.5234 10.7031 25.5938 10.7344C25.6562 10.7578 25.9297 10.9453 26.2031 11.1484Z" fill="#2C459E"/>
</svg>
