<svg width="41" height="35" viewBox="0 0 41 35" fill="none" xmlns="http://www.w3.org/2000/svg">
<path d="M26.0168 20.6883C23.2613 17.833 18.7674 17.4994 15.7127 20.1336C14.4083 21.2584 13.4862 22.857 13.2452 24.5722C13.1799 25.0368 12.996 25.9086 13.3691 26.2816C13.7069 26.6193 14.2926 26.4813 14.4985 26.0767C14.7332 25.6154 14.6288 24.9241 14.7534 24.4137C15.0211 23.3172 15.6231 22.2802 16.4331 21.4944C19.2191 18.792 23.1486 19.5117 25.462 22.3528H23.6389C23.0708 22.3528 22.1769 22.1862 21.6617 22.4573C21.2109 22.6945 21.1408 23.3983 21.595 23.6751C21.9271 23.8775 22.4734 23.7796 22.8463 23.7796H25.8583C26.2441 23.7796 26.8528 23.8926 27.1725 23.6295C27.7581 23.1476 27.4435 21.3774 27.4435 20.6883C27.4435 20.0224 27.7624 18.185 27.1087 17.7808C26.7302 17.5467 26.1742 17.7175 26.0512 18.1531C25.8408 18.8979 26.0168 19.9151 26.0168 20.6883ZM15.1578 29.8828H16.9808C17.5306 29.8828 18.4655 30.0605 18.9538 29.7784C19.3835 29.53 19.388 28.816 18.9538 28.5716C18.5819 28.3622 18.0257 28.4561 17.6149 28.4561H14.6822C14.2775 28.4561 13.7005 28.358 13.3802 28.6664C12.8537 29.173 13.1762 31.0115 13.1762 31.7059C13.1762 32.3351 12.8755 34.0696 13.4413 34.4729C13.8566 34.7691 14.3898 34.5448 14.5392 34.0826C14.7714 33.3641 14.6029 32.3774 14.6029 31.6266C17.3161 34.338 21.8477 34.8276 24.8279 32.1677C26.1365 30.9997 27.0428 29.4837 27.3175 27.7427C27.397 27.2389 27.6142 26.4494 27.2443 26.017C26.9269 25.6461 26.2878 25.7091 26.0848 26.1649C25.9023 26.5749 25.9583 27.1432 25.8737 27.5842C25.7102 28.4372 25.3495 29.2617 24.8339 29.9621C22.5414 33.0757 17.2648 33.528 15.1578 29.8828Z" fill="#2C459E"/>
<path d="M7.47174 11.5538C2.4845 11.5951 -0.868201 16.9494 0.198198 21.5409C0.967276 24.8523 3.73985 27.269 7.07542 27.7338C7.95215 27.856 9.56912 28.0728 10.4033 27.7439C11.0425 27.4918 10.9779 26.5915 10.3249 26.4104C9.612 26.2126 8.68533 26.3929 7.94732 26.3748C7.06548 26.3532 6.12313 26.1061 5.33164 25.7213C1.15765 23.6923 0.209085 18.3151 3.37269 14.9692C4.89373 13.3605 7.00668 12.8375 9.13626 12.9877C9.88807 13.0406 11.6792 14.0711 12.1341 13.2148C12.4012 12.7121 12.0218 12.323 11.5931 12.1228C10.755 11.7316 9.81951 11.5544 8.89847 11.5538C9.3318 8.14287 12.2464 5.4775 15.7151 5.4775C16.3627 5.4775 17.0768 5.5073 17.6967 5.70546C18.1252 5.84243 18.6561 6.23264 19.1231 6.12635C19.5599 6.02695 19.6962 5.56936 19.8613 5.21276C20.13 4.63264 20.5055 4.08746 20.9495 3.6278C22.2886 2.24188 24.4115 1.41046 26.3363 1.41046C29.5627 1.41046 32.3627 3.83523 32.9941 6.95655C33.1293 7.62513 33.1366 8.34278 33.0398 9.01738C32.9826 9.41512 32.8013 9.91274 33.0532 10.277C33.2974 10.6301 33.8084 10.708 34.1834 10.8566C34.7786 11.0925 35.333 11.4242 35.8479 11.804C38.1175 13.4777 39.4365 16.2624 39.1635 19.0838C38.8532 22.2896 36.4192 25.1952 33.3115 26.0469C32.0909 26.3814 30.7536 26.0811 29.5873 26.4104C29.0082 26.5738 28.9073 27.4131 29.4361 27.7093C29.8748 27.9549 30.6816 27.8027 31.1714 27.8027C33.1416 27.8026 35.134 27.187 36.7198 26.009C41.4299 22.5101 41.9545 15.4586 37.6697 11.3882C36.8058 10.5674 35.6298 9.6285 34.4212 9.4137C34.7106 8.4348 34.5676 7.22335 34.3316 6.24318C33.1319 1.26264 27.7651 -1.15978 23.0865 0.540526C21.8363 0.994893 20.6746 1.69935 19.7646 2.67635C19.4492 3.01489 18.8924 4.24635 18.4724 4.3465C18.1291 4.42836 17.5822 4.15162 17.2211 4.11654C16.3165 4.02864 15.4302 4.01752 14.5261 4.12571C10.8987 4.55978 7.50312 7.76384 7.47174 11.5538Z" fill="#2C459E"/>
</svg>
