<svg width="44" height="40" viewBox="0 0 44 40" fill="none" xmlns="http://www.w3.org/2000/svg">
<path d="M18.4468 0.0382888C13.5387 0.33447 8.94365 2.46698 5.48255 6.07193C2.58843 9.07606 0.80288 12.7318 0.15128 16.9545C-0.0518156 18.3085 -0.0518156 21.1941 0.159743 22.5396C0.726719 26.2377 2.24148 29.6395 4.50938 32.3559C8.57976 37.2302 14.5457 39.8197 20.884 39.4558C22.2295 39.3797 22.8557 39.2866 24.1928 38.9904C29.2279 37.848 33.6621 34.6746 36.5224 30.1557C36.9201 29.5295 36.9794 29.3857 36.9794 28.9964C36.9794 28.2686 36.4716 27.7524 35.7523 27.7524C35.1769 27.7524 34.9907 27.9132 34.2376 29.0218C33.1375 30.655 32.0797 31.8651 30.8865 32.8637C27.3577 35.8001 23.1181 37.2049 18.5992 36.9171C13.0225 36.5702 7.9197 33.456 4.99174 28.6325C0.887503 21.8626 1.95376 13.2057 7.58121 7.56977C10.56 4.59949 14.4357 2.83932 18.5992 2.57699C23.1434 2.28927 27.4254 3.71094 30.9288 6.67276C32.1558 7.71363 33.1882 8.88989 34.2545 10.4893C34.9822 11.5809 35.1769 11.7417 35.7523 11.7417C36.4716 11.7417 36.9794 11.2255 36.9794 10.4977C36.9794 10.1085 36.9201 9.96461 36.5224 9.33839C35.4477 7.629 33.8229 5.76729 32.3674 4.55718C28.4916 1.34149 23.5327 -0.274818 18.4468 0.0382888Z" fill="#2C459E"/>
<path d="M37.1148 15.262C36.9624 15.2959 36.734 15.4059 36.607 15.4905C36.2093 15.7867 36.1416 16.0575 36.1078 17.3099L36.0739 18.4777L24.7513 18.4947C13.4625 18.52 13.4202 18.52 13.1918 18.6977C12.7686 19.0109 12.6078 19.307 12.6078 19.7471C12.6078 20.1871 12.7686 20.4833 13.1918 20.7964C13.4202 20.9741 13.4625 20.9741 24.7513 20.9995L36.0739 21.0164L36.1078 22.1842C36.1331 23.4367 36.2093 23.7074 36.607 23.9952C36.8947 24.2152 37.394 24.3167 37.7071 24.2321C37.9864 24.1475 42.5814 20.9487 42.9538 20.5679C43.3854 20.1448 43.3854 19.3493 42.9538 18.9262C42.556 18.5285 37.9779 15.3382 37.6817 15.2536C37.5294 15.2113 37.4025 15.1774 37.4025 15.1859C37.4025 15.1943 37.2756 15.2282 37.1148 15.262Z" fill="#2C459E"/>
</svg>
