<svg width="41" height="41" viewBox="0 0 41 41" fill="none" xmlns="http://www.w3.org/2000/svg">
<path d="M3.532 0.141708C2.68496 0.365455 2.03769 0.741029 1.39842 1.3803C0.751149 2.02757 0.383565 2.66685 0.159819 3.54585C0 4.14517 0 4.48079 0 17.8816C0 31.2824 0 31.618 0.159819 32.2174C0.383565 33.0964 0.751149 33.7356 1.39842 34.3829C2.04568 35.0302 2.68496 35.3977 3.56396 35.6215C4.15529 35.7733 4.47493 35.7813 11.2512 35.7813C19.0984 35.7813 18.6429 35.8133 19.0744 35.2539C19.4979 34.6945 19.37 33.9194 18.7947 33.4799L18.515 33.2642L11.3152 33.2242C4.36306 33.1843 4.10735 33.1763 3.7957 33.0244C3.39615 32.8247 2.95665 32.3852 2.75688 31.9856C2.59706 31.674 2.59706 31.4262 2.59706 17.8816C2.59706 4.33695 2.59706 4.08923 2.75688 3.77759C2.95665 3.37804 3.39615 2.93854 3.7957 2.73876C4.10735 2.57895 4.33109 2.57895 14.5036 2.57895H24.8918L25.2114 2.75475C25.627 2.97849 26.0824 3.45795 26.2662 3.8575C26.4021 4.15316 26.4101 4.59266 26.45 9.29134C26.49 14.0539 26.498 14.4295 26.6338 14.6293C26.8576 14.9729 27.2331 15.1647 27.6966 15.1647C28.216 15.1647 28.5836 14.9329 28.8313 14.4455L29.0151 14.0859L28.9832 8.9717C28.9592 3.34608 28.9832 3.5938 28.4478 2.531C27.9204 1.50017 26.8576 0.58121 25.7468 0.205636L25.2114 0.0218442L14.6634 0.00586233C4.48292 -0.0101196 4.09136 -0.00212861 3.532 0.141708Z" fill="#2C459E"/>
<path d="M5.96923 6.88607C5.57767 7.02991 5.45781 7.14178 5.25804 7.52535C4.96237 8.10868 5.15415 8.74796 5.75347 9.14751L6.01718 9.3313H10.2284H14.4396L14.7033 9.14751C15.0869 8.8918 15.2787 8.59613 15.3186 8.19658C15.3746 7.73311 15.1348 7.25365 14.7273 7.00593L14.4236 6.81415L10.3483 6.79817C7.07997 6.78219 6.21695 6.79817 5.96923 6.88607Z" fill="#2C459E"/>
<path d="M5.75348 13.8222C5.36991 14.0859 5.17813 14.3816 5.13818 14.7811C5.08224 15.2446 5.32197 15.7241 5.72951 15.9718L6.03316 16.1636L14.2239 16.1875C18.7308 16.2035 22.5664 16.1875 22.7582 16.1636C23.2137 16.0996 23.7011 15.6681 23.813 15.2366C23.9648 14.6852 23.6772 14.03 23.1737 13.7663C22.974 13.6624 21.7913 13.6464 14.4796 13.6464H6.01718L5.75348 13.8222Z" fill="#2C459E"/>
<path d="M29.2868 17.4341C24.3644 19.0882 21.1601 20.207 20.9843 20.3188C20.8724 20.3908 20.7046 20.6065 20.6167 20.7983C20.4489 21.1419 20.4489 21.2058 20.4808 25.4091C20.5128 30.0838 20.5208 30.1797 21.0562 31.7459C22.1909 35.0621 25.2994 38.2985 29.3668 40.3841C30.6693 41.0553 30.7012 41.0553 32.0677 40.3521C36.1351 38.2585 39.2516 34.9822 40.3463 31.626C40.8577 30.0758 40.8577 30.0598 40.8897 25.4091C40.9217 21.2058 40.9217 21.1419 40.7539 20.7983C40.666 20.6065 40.4981 20.3908 40.3863 20.3188C40.1545 20.167 31.2526 17.1225 30.8371 17.0506C30.6373 17.0106 30.2378 17.1145 29.2868 17.4341ZM34.481 20.9501L38.3166 22.2527V25.8406L38.3086 29.4285L38.1009 30.2116C37.5095 32.3772 36.0791 34.3829 33.9056 36.1169C33.1704 36.7003 32.0357 37.4674 31.3006 37.859L30.6933 38.1866L30.2298 37.9549C29.5346 37.5953 28.1921 36.6923 27.2731 35.9571C25.2514 34.327 23.845 32.3053 23.2697 30.2116L23.0619 29.4285L23.0539 25.8406V22.2527L26.6498 21.03C29.7024 19.9992 30.6453 19.6716 30.6453 19.6476C30.6453 19.6396 32.3714 20.2309 34.481 20.9501Z" fill="#2C459E"/>
<path d="M34.7846 24.0027C34.6008 24.0906 33.9136 24.9536 32.3953 26.9833C31.2206 28.5495 30.2298 29.86 30.1978 29.908C30.1498 29.9479 29.6145 29.4765 28.8234 28.6934C27.7446 27.6226 27.4729 27.3908 27.1932 27.3189C26.5859 27.1511 26.0105 27.4068 25.7309 27.9502C25.5551 28.3018 25.5311 28.6294 25.6509 28.965C25.7628 29.2607 29.4546 32.9685 29.7823 33.1123C30.1259 33.2642 30.4615 33.2562 30.8131 33.0884C31.0608 32.9685 31.6202 32.2653 33.8417 29.3087C35.6636 26.8794 36.5905 25.5769 36.6225 25.4011C36.7264 24.8737 36.4307 24.2344 35.9593 23.9947C35.6556 23.8428 35.1042 23.8428 34.7846 24.0027Z" fill="#2C459E"/>
<path d="M5.87334 20.5506C5.33795 20.7823 5.03429 21.3976 5.14617 21.9969C5.21809 22.3725 5.61763 22.812 5.97723 22.9159C6.177 22.9798 7.89505 22.9958 11.2433 22.9798C16.1417 22.9559 16.2136 22.9559 16.4374 22.788C17.2205 22.2047 17.2205 21.2298 16.4374 20.6465C16.2136 20.4787 16.1417 20.4787 11.1633 20.4627C7.08797 20.4467 6.06513 20.4627 5.87334 20.5506Z" fill="#2C459E"/>
</svg>
