<svg width="24" height="29" viewBox="0 0 24 29" fill="none" xmlns="http://www.w3.org/2000/svg">
<path d="M7.16667 4H4.08333C3.26558 4 2.48132 4.31607 1.90309 4.87868C1.32485 5.44129 1 6.20435 1 7V25C1 25.7956 1.32485 26.5587 1.90309 27.1213C2.48132 27.6839 3.26558 28 4.08333 28H19.5C20.3178 28 21.102 27.6839 21.6802 27.1213C22.2585 26.5587 22.5833 25.7956 22.5833 25V7C22.5833 6.20435 22.2585 5.44129 21.6802 4.87868C21.102 4.31607 20.3178 4 19.5 4H16.4167" stroke="#2C459E" stroke-width="2" stroke-linecap="round" stroke-linejoin="round"/>
<path d="M13.3334 1H10.25C8.54714 1 7.16669 2.34315 7.16669 4C7.16669 5.65685 8.54714 7 10.25 7H13.3334C15.0362 7 16.4167 5.65685 16.4167 4C16.4167 2.34315 15.0362 1 13.3334 1Z" stroke="#2C459E" stroke-width="2" stroke-linecap="round" stroke-linejoin="round"/>
<path d="M7.16669 22V14.5M11.7917 22V20.5M16.4167 22V17.5" stroke="#2C459E" stroke-width="2" stroke-linecap="round" stroke-linejoin="round"/>
</svg>
