<svg width="25" height="25" viewBox="0 0 25 25" fill="none" xmlns="http://www.w3.org/2000/svg">
<g clip-path="url(#clip0_152_372)">
<path d="M24.6602 21.6143L19.7915 16.7466C19.5718 16.5269 19.2739 16.4048 18.9614 16.4048H18.1655C19.5132 14.6812 20.314 12.5137 20.314 10.1553C20.314 4.54541 15.7676 0 10.1572 0C4.54688 0 0 4.54541 0 10.1553C0 15.7651 4.54639 20.3105 10.1572 20.3105C12.5156 20.3105 14.6841 19.5098 16.4077 18.1621V18.958C16.4077 19.2705 16.5298 19.5684 16.7495 19.7881L21.6182 24.6558C22.0771 25.1147 22.8193 25.1147 23.2734 24.6558L24.6553 23.2739C25.1143 22.8149 25.1143 22.0732 24.6602 21.6143V21.6143ZM10.1572 17.1855C6.27344 17.1855 3.12598 14.0439 3.12598 10.1553C3.12598 6.27197 6.26807 3.125 10.1572 3.125C14.041 3.125 17.1885 6.2666 17.1885 10.1553C17.1885 14.0386 14.0464 17.1855 10.1572 17.1855ZM10.1582 5.46875C8.16699 5.46875 6.55273 7.08252 6.55273 9.07373C6.55273 10.6831 8.90918 13.6172 9.81201 14.6821C9.85436 14.7328 9.90731 14.7736 9.96712 14.8015C10.0269 14.8295 10.0922 14.844 10.1582 14.844C10.2242 14.844 10.2895 14.8295 10.3493 14.8015C10.4091 14.7736 10.4621 14.7328 10.5044 14.6821C11.4072 13.6172 13.7637 10.6836 13.7637 9.07373C13.7637 7.08252 12.1494 5.46875 10.1582 5.46875V5.46875ZM10.1582 10.1562C9.51074 10.1562 8.98633 9.63135 8.98633 8.98438C8.98633 8.33691 9.51123 7.8125 10.1582 7.8125C10.8052 7.8125 11.3301 8.33691 11.3301 8.98438C11.3301 9.63135 10.8052 10.1562 10.1582 10.1562Z" fill="#2C459E"/>
</g>
<defs>
<clipPath id="clip0_152_372">
<rect width="25" height="25" fill="white"/>
</clipPath>
</defs>
</svg>
