<svg width="48" height="48" viewBox="0 0 48 48" fill="none" xmlns="http://www.w3.org/2000/svg">
<g clip-path="url(#clip0_605_437)">
<path d="M39.6432 0H8.3568L0 13.3704V48H48V13.3704L39.6432 0ZM45.7568 12.8H24.8V1.6H38.7568L45.7568 12.8ZM9.2432 1.6H23.2V12.8H2.2432L9.2432 1.6ZM1.6 46.4V14.4H46.4V46.4H1.6Z" fill="#014296"/>
<path d="M28.8 18.3999H19.2C17.8768 18.3999 16.8 19.4767 16.8 20.7999C16.8 22.1231 17.8768 23.1999 19.2 23.1999H28.8C30.1232 23.1999 31.2 22.1231 31.2 20.7999C31.2 19.4767 30.1232 18.3999 28.8 18.3999ZM28.8 21.5999H19.2C18.7592 21.5999 18.4 21.2415 18.4 20.7999C18.4 20.3583 18.7592 19.9999 19.2 19.9999H28.8C29.2408 19.9999 29.6 20.3583 29.6 20.7999C29.6 21.2415 29.2408 21.5999 28.8 21.5999Z" fill="#014296"/>
<path d="M30.4 41.6001H17.6C17.1584 41.6001 16.8 41.9577 16.8 42.4001C16.8 42.8425 17.1584 43.2001 17.6 43.2001H30.4C30.8416 43.2001 31.2 42.8425 31.2 42.4001C31.2 41.9577 30.8416 41.6001 30.4 41.6001Z" fill="#014296"/>
<path d="M20 39.9999C20.4416 39.9999 20.8 39.6423 20.8 39.1999V33.9311L21.8344 34.9655C21.9904 35.1215 22.1952 35.1999 22.4 35.1999C22.6048 35.1999 22.8096 35.1215 22.9656 34.9655C23.2784 34.6527 23.2784 34.1471 22.9656 33.8343L20.5664 31.4351C20.4928 31.3607 20.404 31.3023 20.3056 31.2615C20.1104 31.1807 19.8896 31.1807 19.6944 31.2615C19.596 31.3023 19.508 31.3607 19.4336 31.4351L17.0344 33.8343C16.7216 34.1471 16.7216 34.6527 17.0344 34.9655C17.1904 35.1215 17.3952 35.1999 17.6 35.1999C17.8048 35.1999 18.0096 35.1215 18.1656 34.9655L19.2 33.9311V39.1999C19.2 39.6423 19.5584 39.9999 20 39.9999Z" fill="#014296"/>
<path d="M28.5664 31.4351C28.4928 31.3607 28.404 31.3023 28.3056 31.2615C28.1104 31.1807 27.8896 31.1807 27.6944 31.2615C27.596 31.3023 27.508 31.3607 27.4336 31.4351L25.0344 33.8343C24.7216 34.1471 24.7216 34.6527 25.0344 34.9655C25.1904 35.1215 25.3952 35.1999 25.6 35.1999C25.8048 35.1999 26.0096 35.1215 26.1656 34.9655L27.2 33.9311V39.1999C27.2 39.6423 27.5584 39.9999 28 39.9999C28.4416 39.9999 28.8 39.6423 28.8 39.1999V33.9311L29.8344 34.9655C29.9904 35.1215 30.1952 35.1999 30.4 35.1999C30.6048 35.1999 30.8096 35.1215 30.9656 34.9655C31.2784 34.6527 31.2784 34.1471 30.9656 33.8343L28.5664 31.4351Z" fill="#014296"/>
</g>
<defs>
<clipPath id="clip0_605_437">
<rect width="48" height="48" fill="white"/>
</clipPath>
</defs>
</svg>
