<svg width="25" height="22" viewBox="0 0 25 22" fill="none" xmlns="http://www.w3.org/2000/svg">
<path d="M5.44444 7.66667H8.77778M2.11111 1L22.1111 21M23.2222 7.66667V16.5556C23.2222 17.1449 22.9881 17.7102 22.5713 18.1269C22.1546 18.5437 21.5894 18.7778 21 18.7778H3.22222C2.63285 18.7778 2.06762 18.5437 1.65087 18.1269C1.23413 17.7102 1 17.1449 1 16.5556V5.44444C1 4.85507 1.23413 4.28984 1.65087 3.8731C2.06762 3.45635 2.63285 3.22222 3.22222 3.22222H4.33333M23.2222 7.66667V5.44444C23.2222 4.85507 22.9881 4.28984 22.5713 3.8731C22.1546 3.45635 21.5894 3.22222 21 3.22222H9.88889M23.2222 7.66667H14.3333" stroke="#FF0000" stroke-width="2" stroke-linecap="round" stroke-linejoin="round"/>
</svg>
