<svg width="25" height="18" viewBox="0 0 25 18" fill="none" xmlns="http://www.w3.org/2000/svg">
<path d="M24 5.57143V14.7143C24 15.3205 23.7577 15.9019 23.3263 16.3305C22.895 16.7592 22.31 17 21.7 17H3.3C2.69 17 2.10499 16.7592 1.67365 16.3305C1.24232 15.9019 1 15.3205 1 14.7143V3.28571C1 2.67951 1.24232 2.09812 1.67365 1.66947C2.10499 1.24082 2.69 1 3.3 1H21.7C22.31 1 22.895 1.24082 23.3263 1.66947C23.7577 2.09812 24 2.67951 24 3.28571V5.57143ZM24 5.57143H5.6" stroke="#00B860" stroke-width="2" stroke-linecap="round" stroke-linejoin="round"/>
</svg>
