<svg width="25" height="15" viewBox="0 0 25 15" fill="none" xmlns="http://www.w3.org/2000/svg">
<path d="M16.537 5.92691C16.2125 2.60652 13.4004 0 9.99356 0C7.17066 0 4.6723 1.81703 3.77461 4.45602C1.64395 4.76965 0 6.5975 0 8.81469C0 11.2482 1.97922 13.2274 4.42355 13.2274H15.7366C17.7807 13.2274 19.4463 11.5727 19.4463 9.52848C19.4463 7.76555 18.1917 6.28383 16.537 5.92691ZM15.7366 11.5726H4.42355C2.89855 11.5726 1.65477 10.3396 1.65477 8.81465C1.65477 7.28965 2.89855 6.05668 4.42355 6.05668C5.15898 6.05668 5.85121 6.34867 6.37035 6.86785C7.15016 7.64766 8.32867 6.46836 7.54926 5.68894C6.97602 5.12652 6.27301 4.73719 5.51594 4.5425C6.29465 2.81203 8.0468 1.65477 9.99359 1.65477C12.7083 1.65477 14.9146 3.86113 14.9146 6.565C14.9146 7.095 14.8281 7.6141 14.6659 8.11164C14.3165 9.18652 15.9211 9.6327 16.2341 8.63078C16.3423 8.30633 16.4288 7.97106 16.4829 7.63578C17.24 7.92781 17.7916 8.66324 17.7916 9.52848C17.7916 10.6533 16.8722 11.5726 15.7366 11.5726ZM24.919 9.52848C24.919 11.2482 24.4214 12.9029 23.4697 14.3198C23.3075 14.5577 23.0479 14.6875 22.7775 14.6875C22.1401 14.6875 21.7179 13.9521 22.0961 13.4004C22.8532 12.254 23.2642 10.9129 23.2642 9.52848C23.2642 8.1441 22.8532 6.80297 22.0961 5.66734C21.4846 4.77551 22.8524 3.82203 23.4697 4.74805C24.4215 6.15402 24.919 7.80883 24.919 9.52848ZM22.1502 9.52848C22.1502 10.7615 21.7933 11.9512 21.1011 12.9787C20.9389 13.2166 20.6793 13.3355 20.4089 13.3355C19.737 13.3355 19.3534 12.5942 19.7276 12.0485C20.2359 11.3023 20.4955 10.437 20.4955 9.52848C20.4955 8.63078 20.2359 7.75473 19.7276 7.00848C19.1119 6.11059 20.4701 5.16883 21.1011 6.08914C21.7933 7.10578 22.1502 8.29551 22.1502 9.52848Z" fill="#2C459E"/>
</svg>
