<?xml version="1.0" standalone="no"?>
<!DOCTYPE svg PUBLIC "-//W3C//DTD SVG 20010904//EN"
 "http://www.w3.org/TR/2001/REC-SVG-20010904/DTD/svg10.dtd">
<svg version="1.0" xmlns="http://www.w3.org/2000/svg"
 width="512.000000pt" height="512.000000pt" viewBox="0 0 512.000000 512.000000"
 preserveAspectRatio="xMidYMid meet">

<g transform="translate(0.000000,512.000000) scale(0.100000,-0.100000)"
fill="#000000" stroke="none">
<path d="M2513 5107 c-19 -10 -679 -893 -734 -982 -23 -37 -24 -68 -2 -105 26
-45 50 -50 238 -50 l175 0 0 -891 0 -890 -21 6 c-98 31 -215 45 -391 45 l-188
0 0 179 c0 177 0 180 -25 209 -31 37 -75 49 -113 30 -46 -23 -944 -687 -980
-724 -34 -36 -40 -66 -20 -109 15 -34 982 -748 1021 -753 15 -2 41 1 58 8 52
22 59 50 59 240 l0 170 160 0 c139 0 167 -3 217 -22 77 -28 152 -100 189 -181
l29 -62 5 -587 5 -587 23 -23 c22 -23 25 -23 326 -26 184 -2 313 1 329 7 14 6
34 22 44 38 17 26 18 92 23 1203 l5 1175 23 43 c36 67 98 129 161 159 54 27
64 28 229 31 l172 4 0 -172 c0 -217 14 -250 104 -250 37 0 23 -10 681 474 171
125 322 241 338 257 39 42 37 89 -5 133 -18 18 -246 190 -506 381 -506 372
-505 371 -566 331 -15 -9 -31 -28 -36 -42 -6 -14 -10 -101 -10 -193 l0 -168
-212 -6 c-193 -5 -297 -17 -360 -42 -17 -7 -18 11 -18 299 l0 306 170 0 c187
0 216 7 238 55 17 37 15 65 -7 100 -55 89 -715 972 -734 982 -12 7 -33 12 -47
12 -14 0 -35 -5 -47 -12z m303 -602 l242 -330 -126 -5 c-130 -5 -163 -14 -182
-50 -7 -12 -10 -406 -10 -1175 l0 -1156 -104 108 c-62 64 -132 126 -174 153
l-71 45 0 980 c-1 621 -5 993 -11 1016 -18 66 -36 73 -185 79 l-133 5 245 333
c135 183 250 331 256 329 5 -1 119 -151 253 -332z m1260 -1222 c184 -135 331
-249 327 -254 -18 -16 -663 -489 -668 -489 -3 0 -5 54 -5 120 0 133 -10 168
-55 188 -32 15 -427 17 -506 2 -30 -5 -93 -29 -141 -54 l-88 -44 0 198 0 198
48 16 c109 37 200 46 439 46 l235 0 34 34 34 34 0 126 c0 69 3 126 6 126 3 0
156 -111 340 -247z m-2653 -1210 l27 -28 278 -6 c152 -4 288 -10 302 -14 207
-60 306 -113 429 -229 119 -114 204 -260 249 -425 l25 -96 5 -537 4 -538 -175
0 -175 0 -4 523 c-5 576 -3 563 -71 691 -66 125 -216 236 -355 265 -68 14
-497 15 -522 1 -36 -19 -45 -52 -50 -183 l-5 -129 -220 162 c-121 90 -273 202
-338 250 l-118 88 338 249 338 250 5 -134 c5 -129 6 -133 33 -160z"/>
</g>
</svg>
