<?xml version="1.0" standalone="no"?>
<!DOCTYPE svg PUBLIC "-//W3C//DTD SVG 20010904//EN"
 "http://www.w3.org/TR/2001/REC-SVG-20010904/DTD/svg10.dtd">
<svg version="1.0" xmlns="http://www.w3.org/2000/svg"
 width="512.000000pt" height="512.000000pt" viewBox="0 0 512.000000 512.000000"
 preserveAspectRatio="xMidYMid meet">

<g transform="translate(0.000000,512.000000) scale(0.100000,-0.100000)"
fill="#000000" stroke="none">
<path d="M2955 5094 c-42 -23 -186 -101 -730 -399 -950 -521 -1262 -696 -1275
-716 -13 -20 -16 -113 -20 -702 l-5 -680 -55 -19 c-89 -30 -215 -96 -304 -159
-400 -285 -615 -768 -556 -1249 20 -162 93 -388 145 -449 19 -21 32 -26 70
-26 39 0 51 5 71 28 32 38 31 82 -5 167 -150 352 -111 750 104 1075 52 79 182
213 264 274 505 375 1229 259 1593 -254 281 -396 276 -937 -13 -1326 -63 -85
-196 -213 -279 -267 -322 -212 -721 -250 -1070 -101 -85 36 -129 37 -167 5
-23 -20 -28 -32 -28 -71 0 -59 22 -79 131 -125 228 -95 521 -124 759 -75 392
80 732 331 918 676 23 43 47 79 52 79 6 0 105 -52 220 -116 116 -64 224 -118
241 -121 27 -4 126 47 710 367 374 205 830 456 1014 557 184 100 345 195 358
209 22 25 22 26 22 399 0 402 -1 415 -51 441 -35 18 -63 18 -98 0 -49 -26 -51
-42 -51 -394 l0 -328 -832 -457 c-458 -251 -861 -473 -895 -492 l-63 -35 0
983 1 982 288 158 c159 86 292 157 295 157 3 0 6 -119 6 -265 0 -289 3 -310
55 -333 14 -7 36 -12 48 -12 25 1 461 238 493 269 12 11 24 35 28 52 3 17 6
169 6 338 l1 306 275 150 c151 83 279 152 284 153 6 2 10 -95 10 -268 0 -294
3 -315 55 -338 34 -16 60 -15 94 2 50 26 51 39 51 442 l0 376 -27 27 c-38 36
-2035 1131 -2065 1131 -13 0 -46 -12 -73 -26z m965 -679 c486 -267 885 -487
887 -488 3 -4 -534 -300 -553 -305 -6 -2 -301 156 -655 351 -354 194 -753 413
-887 487 -134 73 -239 137 -235 141 15 14 538 299 549 299 6 0 409 -218 894
-485z m-775 -421 c487 -268 885 -489 885 -493 0 -3 -48 -32 -106 -64 l-105
-58 -889 488 c-490 268 -890 490 -890 493 0 6 201 118 212 119 5 1 406 -218
893 -485z m-454 -224 c464 -254 861 -472 881 -484 l37 -22 -281 -154 c-155
-85 -288 -156 -295 -158 -10 -3 -1430 768 -1752 951 l-40 23 282 156 c164 91
291 155 303 154 12 -2 401 -211 865 -466z m-653 -511 c482 -265 880 -484 885
-488 4 -4 6 -446 5 -983 l-3 -977 -153 82 -153 82 6 35 c34 210 37 242 32 370
-5 144 -23 249 -63 369 -132 395 -450 713 -845 845 -148 49 -230 61 -432 61
l-187 0 0 549 c0 495 2 548 16 542 8 -3 410 -222 892 -487z m2110 -161 l-3
-222 -60 -34 c-33 -18 -84 -47 -112 -63 l-53 -29 0 228 0 229 103 56 c56 31
108 57 115 57 10 0 12 -48 10 -222z"/>
<path d="M4971 2916 c-59 -33 -67 -102 -17 -152 50 -50 115 -43 149 16 52 88
-42 186 -132 136z"/>
<path d="M814 1768 c-79 -78 -147 -153 -152 -167 -17 -51 3 -82 148 -226 139
-139 141 -140 186 -140 59 0 94 36 94 96 0 34 -7 48 -47 90 l-47 50 335 -3
336 -3 48 -30 c131 -81 168 -228 91 -359 -14 -25 -42 -57 -61 -72 -61 -46
-109 -54 -337 -54 l-210 0 -29 -29 c-48 -49 -38 -125 21 -156 42 -22 421 -22
505 0 182 48 314 191 345 376 39 229 -122 465 -351 518 -25 6 -186 11 -368 11
l-324 0 47 50 c39 42 46 55 46 90 0 56 -42 100 -96 100 -35 0 -48 -10 -180
-142z"/>
<path d="M411 546 c-59 -33 -67 -102 -17 -152 50 -50 121 -42 152 17 46 91
-47 184 -135 135z"/>
</g>
</svg>
