<?xml version="1.0" standalone="no"?>
<!DOCTYPE svg PUBLIC "-//W3C//DTD SVG 20010904//EN"
 "http://www.w3.org/TR/2001/REC-SVG-20010904/DTD/svg10.dtd">
<svg version="1.0" xmlns="http://www.w3.org/2000/svg"
 width="512.000000pt" height="512.000000pt" viewBox="0 0 512.000000 512.000000"
 preserveAspectRatio="xMidYMid meet">

<g transform="translate(0.000000,512.000000) scale(0.100000,-0.100000)"
fill="#000000" stroke="none">
<path d="M3294 4616 c-197 -45 -373 -173 -473 -344 -21 -37 -45 -84 -52 -104
l-13 -38 -1126 0 -1125 0 -50 -24 c-60 -28 -87 -56 -114 -116 -37 -81 -23
-171 38 -241 72 -85 -28 -79 1243 -79 l1128 0 29 -64 c93 -206 276 -362 488
-417 98 -25 251 -27 348 -4 210 48 392 196 488 397 l42 87 240 1 c273 1 293 5
356 79 63 72 75 161 35 246 -28 60 -56 87 -116 114 -41 19 -65 21 -280 21
l-235 0 -42 88 c-87 183 -244 318 -443 383 -84 27 -277 35 -366 15z m250 -466
c97 -37 176 -149 176 -250 0 -45 -28 -123 -60 -167 -42 -57 -134 -103 -205
-103 -145 0 -260 101 -272 240 -13 136 55 239 186 286 53 19 113 17 175 -6z"/>
<path d="M1491 3269 c-215 -56 -395 -207 -483 -406 l-32 -73 -229 0 c-251 0
-284 -5 -343 -53 -70 -58 -99 -159 -72 -251 16 -54 93 -131 144 -145 23 -6
136 -11 269 -11 l230 0 33 -73 c203 -449 793 -572 1152 -240 78 72 158 185
185 262 l19 51 1120 0 c770 0 1133 3 1160 11 23 6 57 29 85 57 74 74 90 165
47 258 -27 58 -80 106 -135 123 -28 8 -348 11 -1158 11 l-1119 0 -18 49 c-27
77 -109 193 -186 264 -84 77 -217 147 -327 171 -99 22 -249 20 -342 -5z m267
-454 c69 -21 143 -94 167 -165 63 -189 -90 -380 -285 -357 -101 12 -196 92
-224 188 -20 65 -20 93 -2 153 46 151 190 227 344 181z"/>
<path d="M3262 1930 c-207 -55 -391 -213 -483 -416 l-29 -64 -1128 0 c-1271 0
-1171 6 -1243 -79 -61 -70 -75 -160 -38 -241 27 -60 54 -88 114 -116 l50 -24
1126 0 1125 0 18 -49 c27 -75 109 -193 180 -258 81 -74 169 -126 271 -160 72
-25 94 -27 225 -27 133 0 152 2 225 28 197 68 341 196 428 378 l42 88 235 0
c226 0 237 1 285 24 60 28 87 56 114 116 37 81 23 171 -38 241 -63 74 -83 78
-356 79 l-240 1 -42 87 c-95 199 -273 345 -484 396 -92 22 -263 20 -357 -4z
m306 -471 c40 -20 72 -44 92 -72 85 -116 76 -254 -24 -354 -179 -179 -474 -41
-453 213 15 190 212 300 385 213z"/>
</g>
</svg>
