<svg width="31" height="31" viewBox="0 0 31 31" fill="none" xmlns="http://www.w3.org/2000/svg">
<path d="M16.6148 30.8618C20.076 30.5331 23.0408 29.3021 25.548 27.1365C28.3904 24.6872 30.1693 21.4452 30.7687 17.6103C30.9299 16.5919 30.9299 14.2716 30.7687 13.2532C30.2918 10.2046 29.0994 7.58782 27.1529 5.32551C24.6908 2.45735 21.249 0.613987 17.3883 0.0790261C16.5955 -0.0305442 14.3074 -0.0240989 13.5211 0.0854714C11.6326 0.343284 9.78924 0.929807 8.24237 1.75481C1.07518 5.56399 -1.92833 14.1298 1.28143 21.5999C3.70487 27.2525 9.42831 30.9714 15.5836 30.8876C16.0283 30.8876 16.4924 30.8683 16.6148 30.8618ZM14.1592 28.7736C9.47342 28.2966 5.36776 25.422 3.36327 21.2003C1.59725 17.4814 1.62303 13.2339 3.42772 9.5343C6.20565 3.85598 12.6123 0.891136 18.7482 2.44446C20.5787 2.90852 22.4156 3.82375 23.8658 4.9968C26.6437 7.23332 28.4355 10.5591 28.7965 14.1363C29.1381 17.5652 28.0682 21.1423 25.8896 23.8429C23.0666 27.3427 18.6 29.2183 14.1592 28.7736Z" fill="#2C459E"/>
<path d="M15.8736 23.5915C15.9768 23.54 17.0725 22.4894 18.3035 21.2583C20.7205 18.8284 20.6883 18.8671 20.5787 18.287C20.5207 17.9712 20.134 17.5845 19.8182 17.5265C19.2703 17.4234 19.1994 17.4685 17.7943 18.8671L16.486 20.1626L16.4731 14.0009C16.4537 7.89075 16.4537 7.83274 16.3184 7.65872C16.067 7.31711 15.8608 7.21399 15.4547 7.21399C15.0486 7.21399 14.8424 7.31711 14.591 7.65872C14.4557 7.83274 14.4557 7.89075 14.4363 14.0009L14.4235 20.1626L13.1151 18.8671C11.71 17.4685 11.6391 17.4234 11.0912 17.5265C10.7754 17.5845 10.3887 17.9712 10.3307 18.287C10.2211 18.8671 10.1889 18.8284 12.6059 21.2583C13.8563 22.5087 14.9326 23.54 15.0486 23.5915C15.3065 23.7011 15.6223 23.7011 15.8736 23.5915Z" fill="#2C459E"/>
</svg>
