<svg width="18" height="18" viewBox="0 0 18 18" fill="none" xmlns="http://www.w3.org/2000/svg">
<path d="M9 13.5C9.255 13.5 9.4689 13.4136 9.6417 13.2408C9.8145 13.068 9.9006 12.8544 9.9 12.6C9.9 12.345 9.8136 12.1311 9.6408 11.9583C9.468 11.7855 9.2544 11.6994 9 11.7C8.745 11.7 8.5311 11.7864 8.3583 11.9592C8.1855 12.132 8.0994 12.3456 8.1 12.6C8.1 12.855 8.1864 13.0689 8.3592 13.2417C8.532 13.4145 8.7456 13.5006 9 13.5ZM8.1 9.9H9.9V4.5H8.1V9.9ZM9 18C7.755 18 6.585 17.7636 5.49 17.2908C4.395 16.818 3.4425 16.1769 2.6325 15.3675C1.8225 14.5575 1.1814 13.605 0.7092 12.51C0.237 11.415 0.0006 10.245 0 9C0 7.755 0.2364 6.585 0.7092 5.49C1.182 4.395 1.8231 3.4425 2.6325 2.6325C3.4425 1.8225 4.395 1.1814 5.49 0.7092C6.585 0.237 7.755 0.0006 9 0C10.245 0 11.415 0.2364 12.51 0.7092C13.605 1.182 14.5575 1.8231 15.3675 2.6325C16.1775 3.4425 16.8189 4.395 17.2917 5.49C17.7645 6.585 18.0006 7.755 18 9C18 10.245 17.7636 11.415 17.2908 12.51C16.818 13.605 16.1769 14.5575 15.3675 15.3675C14.5575 16.1775 13.605 16.8189 12.51 17.2917C11.415 17.7645 10.245 18.0006 9 18ZM9 16.2C11.01 16.2 12.7125 15.5025 14.1075 14.1075C15.5025 12.7125 16.2 11.01 16.2 9C16.2 6.99 15.5025 5.2875 14.1075 3.8925C12.7125 2.4975 11.01 1.8 9 1.8C6.99 1.8 5.2875 2.4975 3.8925 3.8925C2.4975 5.2875 1.8 6.99 1.8 9C1.8 11.01 2.4975 12.7125 3.8925 14.1075C5.2875 15.5025 6.99 16.2 9 16.2Z" fill="#FBFBFB"/>
</svg>
