<svg width="21" height="26" viewBox="0 0 21 26" fill="none" xmlns="http://www.w3.org/2000/svg">
<path d="M14.3333 6.33333H6.33333M14.3333 11.6667H6.33333M14.3333 17H9M1 1H19.6667V25L18.2907 23.8213C17.8074 23.4071 17.1918 23.1794 16.5553 23.1794C15.9188 23.1794 15.3033 23.4071 14.82 23.8213L13.444 25L12.0693 23.8213C11.5859 23.4068 10.9701 23.1789 10.3333 23.1789C9.69652 23.1789 9.08073 23.4068 8.59733 23.8213L7.22267 25L5.84667 23.8213C5.36337 23.4071 4.74785 23.1794 4.11133 23.1794C3.47482 23.1794 2.8593 23.4071 2.376 23.8213L1 25V1Z" stroke="#014296" stroke-width="2" stroke-linecap="round" stroke-linejoin="round"/>
</svg>
