<svg width="18" height="22" viewBox="0 0 18 22" fill="none" xmlns="http://www.w3.org/2000/svg">
<path d="M12.1111 5.44444H5.44444M12.1111 9.88889H5.44444M12.1111 14.3333H7.66667M1 1H16.5556V21L15.4089 20.0178C15.0061 19.6726 14.4932 19.4829 13.9628 19.4829C13.4323 19.4829 12.9194 19.6726 12.5167 20.0178L11.37 21L10.2244 20.0178C9.82162 19.6723 9.30846 19.4824 8.77778 19.4824C8.2471 19.4824 7.73394 19.6723 7.33111 20.0178L6.18556 21L5.03889 20.0178C4.63614 19.6726 4.12321 19.4829 3.59278 19.4829C3.06235 19.4829 2.54942 19.6726 2.14667 20.0178L1 21V1Z" stroke="#014296" stroke-width="2" stroke-linecap="round" stroke-linejoin="round"/>
</svg>
