<?xml version="1.0" standalone="no"?>
<!DOCTYPE svg PUBLIC "-//W3C//DTD SVG 20010904//EN"
 "http://www.w3.org/TR/2001/REC-SVG-20010904/DTD/svg10.dtd">
<svg version="1.0" xmlns="http://www.w3.org/2000/svg"
 width="512.000000pt" height="512.000000pt" viewBox="0 0 512.000000 512.000000"
 preserveAspectRatio="xMidYMid meet">

<g transform="translate(0.000000,512.000000) scale(0.100000,-0.100000)"
fill="#000000" stroke="none">
<path d="M521 4624 c-253 -68 -410 -331 -346 -579 67 -256 329 -415 580 -350
256 67 415 329 350 578 -67 259 -333 419 -584 351z m182 -318 c103 -43 128
-177 48 -257 -112 -113 -296 -12 -267 146 18 94 128 150 219 111z"/>
<path d="M1801 4624 c-253 -68 -410 -331 -346 -579 45 -172 179 -305 352 -350
87 -23 2700 -22 2788 0 172 45 305 179 350 352 65 249 -94 511 -350 578 -86
22 -2710 22 -2794 -1z m2765 -330 c53 -39 69 -71 69 -134 0 -63 -16 -95 -69
-134 -27 -21 -32 -21 -1344 -24 -905 -2 -1328 0 -1354 8 -101 29 -140 168 -71
251 52 62 -33 59 1415 56 1323 -2 1327 -2 1354 -23z"/>
<path d="M521 3024 c-253 -68 -410 -331 -346 -579 67 -256 329 -415 580 -350
256 67 415 329 350 578 -67 259 -333 419 -584 351z m182 -318 c103 -43 128
-177 48 -257 -65 -65 -157 -65 -222 0 -124 123 13 325 174 257z"/>
<path d="M1801 3024 c-253 -68 -410 -331 -346 -579 45 -172 179 -305 352 -350
87 -23 2700 -22 2788 0 256 67 415 329 350 578 -45 173 -178 307 -350 352 -86
22 -2710 22 -2794 -1z m2765 -330 c53 -39 69 -71 69 -134 0 -63 -16 -95 -69
-134 -27 -21 -32 -21 -1344 -24 -905 -2 -1328 0 -1354 8 -101 29 -140 168 -71
251 52 62 -33 59 1415 56 1323 -2 1327 -2 1354 -23z"/>
<path d="M521 1424 c-253 -68 -410 -331 -346 -579 67 -256 329 -415 580 -350
256 67 415 329 350 578 -67 259 -333 419 -584 351z m182 -318 c103 -43 128
-177 48 -257 -65 -65 -157 -65 -222 0 -124 123 13 325 174 257z"/>
<path d="M1801 1424 c-253 -68 -410 -331 -346 -579 45 -172 179 -305 352 -350
87 -23 2700 -22 2788 0 256 67 415 329 350 578 -45 173 -178 307 -350 352 -86
22 -2710 22 -2794 -1z m2765 -330 c53 -39 69 -71 69 -134 0 -63 -16 -95 -69
-134 -27 -21 -32 -21 -1344 -24 -905 -2 -1328 0 -1354 8 -101 29 -140 168 -71
251 52 62 -33 59 1415 56 1323 -2 1327 -2 1354 -23z"/>
</g>
</svg>
