<svg width="27" height="24" viewBox="0 0 27 24" fill="none" xmlns="http://www.w3.org/2000/svg">
<path d="M26.4293 5.90801C26.3067 5.73077 26.1429 5.5859 25.952 5.48582C25.7612 5.38573 25.5489 5.33341 25.3333 5.33334H7.11067L5.572 1.64001C5.37025 1.15363 5.02863 0.738124 4.59043 0.446154C4.15224 0.154184 3.63722 -0.00109472 3.11067 5.80965e-06H0V2.66667H3.11067L9.436 17.8467C9.53732 18.0895 9.70824 18.297 9.92723 18.4429C10.1462 18.5888 10.4035 18.6667 10.6667 18.6667H21.3333C21.8893 18.6667 22.3867 18.3213 22.5827 17.8027L26.5827 7.13601C26.6583 6.93417 26.6838 6.71701 26.6571 6.50314C26.6304 6.28927 26.5522 6.08506 26.4293 5.90801ZM20.4093 16H11.556L8.22267 8H23.4093L20.4093 16Z" fill="#014296"/>
<path d="M11.3333 24C12.4378 24 13.3333 23.1046 13.3333 22C13.3333 20.8954 12.4378 20 11.3333 20C10.2287 20 9.33325 20.8954 9.33325 22C9.33325 23.1046 10.2287 24 11.3333 24Z" fill="#014296"/>
<path d="M20.6666 24C21.7712 24 22.6666 23.1046 22.6666 22C22.6666 20.8954 21.7712 20 20.6666 20C19.5621 20 18.6666 20.8954 18.6666 22C18.6666 23.1046 19.5621 24 20.6666 24Z" fill="#014296"/>
</svg>
