<svg width="31" height="31" viewBox="0 0 31 31" fill="none" xmlns="http://www.w3.org/2000/svg">
<path d="M14.2748 0.0271658C10.8136 0.355877 7.84878 1.58693 5.34155 3.75256C2.49917 6.20178 0.720264 9.44377 0.12085 13.2787C-0.0402832 14.2971 -0.0402832 16.6174 0.12085 17.6358C0.597803 20.6844 1.79019 23.3012 3.73667 25.5635C6.19878 28.4317 9.64058 30.275 13.5013 30.81C14.2941 30.9196 16.5822 30.9131 17.3685 30.8035C19.257 30.5457 21.1003 29.9592 22.6472 29.1342C29.8144 25.325 32.8179 16.7592 29.6082 9.28908C27.1847 3.63654 21.4613 -0.0824045 15.306 0.00138457C14.8613 0.00138457 14.3972 0.0207205 14.2748 0.0271658ZM16.7304 2.11545C21.4162 2.5924 25.5218 5.46701 27.5263 9.68869C29.2923 13.4076 29.2666 17.6551 27.4619 21.3547C24.6839 27.033 18.2773 29.9979 12.1414 28.4446C10.3109 27.9805 8.47398 27.0653 7.02378 25.8922C4.24585 23.6557 2.45405 20.3299 2.09312 16.7528C1.75151 13.3238 2.82144 9.7467 4.99995 7.04611C7.823 3.54631 12.2896 1.67072 16.7304 2.11545Z" fill="#2C459E"/>
<path d="M15.0159 7.29748C14.9128 7.34904 13.8171 8.39963 12.5861 9.63068C10.1691 12.0606 10.2013 12.0219 10.3109 12.602C10.3689 12.9178 10.7556 13.3045 11.0714 13.3625C11.6193 13.4656 11.6902 13.4205 13.0952 12.0219L14.4036 10.7264L14.4165 16.8881C14.4359 22.9983 14.4359 23.0563 14.5712 23.2303C14.8226 23.5719 15.0288 23.675 15.4349 23.675C15.8409 23.675 16.0472 23.5719 16.2986 23.2303C16.4339 23.0563 16.4339 22.9983 16.4532 16.8881L16.4661 10.7264L17.7745 12.0219C19.1796 13.4205 19.2505 13.4656 19.7984 13.3625C20.1142 13.3045 20.5009 12.9178 20.5589 12.602C20.6685 12.0219 20.7007 12.0606 18.2837 9.63068C17.0333 8.38029 15.957 7.34904 15.8409 7.29748C15.5831 7.18791 15.2673 7.18791 15.0159 7.29748Z" fill="#2C459E"/>
</svg>
