<svg width="31" height="31" viewBox="0 0 31 31" fill="none" xmlns="http://www.w3.org/2000/svg">
<path d="M12.5029 1.0293L6.75098 1.05957L6.32715 1.2291C5.41289 1.59238 4.65 2.36133 4.31699 3.26953L4.14746 3.72363V15.5303V27.3369L4.31699 27.791C4.65605 28.7174 5.43105 29.4924 6.35742 29.8314L6.81152 30.001H15.2578H23.7041L24.0977 29.8557C24.9393 29.5529 25.6416 28.9293 26.0412 28.1422C26.4166 27.4035 26.3984 27.8939 26.3984 17.9521V8.87012L22.5113 4.98301C19.6898 2.16152 18.5697 1.07773 18.4365 1.0414C18.3396 1.01719 15.6695 1.01113 12.5029 1.0293ZM17.5586 4.52891C17.5586 5.80644 17.5828 6.84785 17.6252 7.05976C17.8008 8.02851 18.5516 9.03359 19.4416 9.46953C20.1863 9.83281 20.4648 9.86914 22.8746 9.86914H25.0059L24.9938 18.5395L24.9756 27.2158L24.8121 27.5186C24.6184 27.8818 24.2248 28.2693 23.8555 28.4631L23.583 28.6084H15.2578H6.93262L6.62988 28.4449C6.21816 28.227 5.85488 27.8334 5.64902 27.3975L5.47949 27.0342L5.46133 15.8027C5.45527 9.06992 5.46738 4.42598 5.50371 4.20195C5.63691 3.31191 6.2 2.68828 7.08398 2.44609C7.28984 2.38555 8.59766 2.36738 12.4605 2.36738L17.5586 2.36133V4.52891ZM23.7223 8.46445C23.5467 8.47656 22.7475 8.47656 21.9482 8.46445C20.5072 8.44629 20.4891 8.44629 20.1621 8.28281C19.7262 8.0709 19.3387 7.6834 19.1389 7.26562C18.9814 6.93262 18.9814 6.93262 18.9633 5.14648L18.9451 3.36035L21.4941 5.90332L24.0371 8.44629L23.7223 8.46445Z" fill="#2C459E"/>
<path d="M8.18593 13.0781C7.78026 13.3264 7.73183 13.841 8.08905 14.174L8.24647 14.3193H12.2668H16.2871L16.4809 14.1195C16.6443 13.9561 16.6807 13.8773 16.6807 13.6533C16.6807 13.4293 16.6443 13.3506 16.4809 13.1871L16.2871 12.9873L12.3334 12.9691C8.45839 12.957 8.37968 12.957 8.18593 13.0781Z" fill="#2C459E"/>
<path d="M8.0951 18.3457C7.82869 18.5516 7.78025 18.8846 7.94978 19.2418C8.10721 19.5688 7.79842 19.5566 15.2578 19.5566C22.7172 19.5566 22.4084 19.5688 22.5658 19.2418C22.7353 18.8846 22.6869 18.5516 22.4205 18.3457C22.2631 18.2246 22.2267 18.2246 15.2578 18.2246C8.28885 18.2246 8.25252 18.2246 8.0951 18.3457Z" fill="#2C459E"/>
<path d="M8.29495 23.474C8.12542 23.5346 7.93772 23.7525 7.87112 23.9523C7.7803 24.2187 7.91956 24.5396 8.18596 24.7031C8.38577 24.8242 8.47053 24.8242 15.2639 24.8242H22.142L22.3479 24.685C22.7233 24.4307 22.7596 23.9463 22.4326 23.6133L22.2813 23.4619L15.3305 23.4498C11.51 23.4437 8.34339 23.4559 8.29495 23.474Z" fill="#2C459E"/>
</svg>
