<svg width="16" height="16" viewBox="0 0 16 16" fill="none" xmlns="http://www.w3.org/2000/svg">
<path d="M4.66667 6.66667H13.3333C13.5101 6.66667 13.6797 6.7369 13.8047 6.86193C13.9298 6.98695 14 7.15652 14 7.33333V14C14 14.1768 13.9298 14.3464 13.8047 14.4714C13.6797 14.5964 13.5101 14.6667 13.3333 14.6667H2.66667C2.48986 14.6667 2.32029 14.5964 2.19526 14.4714C2.07024 14.3464 2 14.1768 2 14V7.33333C2 7.15652 2.07024 6.98695 2.19526 6.86193C2.32029 6.7369 2.48986 6.66667 2.66667 6.66667H3.33333V6C3.33295 4.94847 3.68772 3.92763 4.34013 3.10296C4.99253 2.27828 5.90434 1.69812 6.92773 1.45651C7.95113 1.2149 9.02613 1.326 9.97848 1.77181C10.9308 2.21762 11.7047 2.972 12.1747 3.91267L10.982 4.50867C10.6463 3.83668 10.0935 3.29776 9.41322 2.9793C8.73291 2.66083 7.96497 2.58148 7.23392 2.75412C6.50287 2.92675 5.85155 3.34125 5.38557 3.93041C4.91959 4.51956 4.66627 5.24884 4.66667 6V6.66667ZM3.33333 8V13.3333H12.6667V8H3.33333ZM6.66667 10H9.33333V11.3333H6.66667V10Z" fill="#2C459E"/>
</svg>
