<?xml version="1.0" standalone="no"?>
<!DOCTYPE svg PUBLIC "-//W3C//DTD SVG 20010904//EN"
 "http://www.w3.org/TR/2001/REC-SVG-20010904/DTD/svg10.dtd">
<svg version="1.0" xmlns="http://www.w3.org/2000/svg"
 width="512.000000pt" height="512.000000pt" viewBox="0 0 512.000000 512.000000"
 preserveAspectRatio="xMidYMid meet">

<g transform="translate(0.000000,512.000000) scale(0.100000,-0.100000)"
fill="#000000" stroke="none">
<path d="M530 5111 c-69 -21 -130 -73 -166 -141 -18 -34 -19 -111 -22 -2237
l-2 -2203 -68 0 c-108 -1 -195 -52 -245 -145 -16 -30 -22 -58 -22 -115 0 -65
4 -82 31 -130 33 -60 99 -112 162 -130 51 -14 4673 -14 4724 0 62 18 129 70
160 127 102 182 -24 393 -234 393 l-68 0 0 1173 c0 1118 -1 1174 -19 1212 -22
48 -54 79 -103 100 -33 13 -128 15 -733 15 l-695 0 0 928 c0 1030 2 991 -66
1070 -20 24 -55 53 -78 65 l-41 22 -1245 2 c-685 1 -1256 -2 -1270 -6z m2490
-156 c63 -33 60 16 60 -999 l0 -925 -353 -3 -353 -3 -41 -27 c-24 -16 -49 -44
-62 -70 -21 -44 -21 -48 -21 -945 l0 -902 26 -20 c43 -34 86 -26 109 20 13 24
15 154 15 902 0 666 3 876 12 885 17 17 2189 17 2206 0 9 -9 12 -284 12 -1175
l0 -1163 -1115 0 -1115 0 0 120 c0 87 -4 129 -15 149 -23 46 -66 54 -108 20
-26 -20 -26 -23 -29 -152 l-3 -132 -878 -3 -877 -2 2 2189 c3 2173 3 2189 23
2211 11 12 29 26 40 31 11 4 564 8 1228 8 1061 1 1212 -1 1237 -14z m1898
-4591 c26 -18 52 -65 52 -94 0 -39 -31 -88 -65 -104 -30 -14 -260 -16 -2345
-16 -2563 0 -2361 -5 -2394 65 -20 41 -20 68 -1 105 34 65 -177 60 2395 60
2100 0 2338 -2 2358 -16z"/>
<path d="M792 4640 c-66 -41 -72 -62 -72 -280 0 -177 2 -198 20 -228 41 -66
62 -72 280 -72 218 0 239 6 280 72 18 30 20 51 20 228 0 177 -2 198 -20 228
-41 66 -62 72 -280 72 -177 0 -198 -2 -228 -20z m378 -280 l0 -150 -150 0
-150 0 0 150 0 150 150 0 150 0 0 -150z"/>
<path d="M1560 4642 c-22 -12 -44 -35 -57 -62 -21 -41 -23 -57 -23 -220 0
-162 2 -179 23 -220 36 -74 59 -80 282 -80 222 0 245 7 283 80 20 41 22 57 22
221 0 164 -2 179 -23 219 -39 73 -62 80 -282 80 -165 0 -195 -2 -225 -18z
m380 -282 l0 -150 -155 0 -155 0 0 150 0 150 155 0 155 0 0 -150z"/>
<path d="M2322 4640 c-66 -41 -72 -62 -72 -280 0 -177 2 -198 20 -228 41 -66
62 -72 280 -72 218 0 239 6 280 72 18 30 20 51 20 228 0 177 -2 198 -20 228
-41 66 -62 72 -280 72 -177 0 -198 -2 -228 -20z m378 -280 l0 -150 -150 0
-150 0 0 150 0 150 150 0 150 0 0 -150z"/>
<path d="M829 3721 c-44 -14 -77 -41 -93 -76 -13 -27 -16 -71 -16 -228 0 -185
1 -196 23 -227 43 -63 70 -70 275 -70 205 0 234 7 275 64 21 29 22 43 25 229
3 186 2 199 -18 236 -40 69 -61 76 -265 78 -99 1 -192 -2 -206 -6z m341 -296
l0 -155 -150 0 -150 0 0 155 0 155 150 0 150 0 0 -155z"/>
<path d="M1571 3708 c-84 -43 -86 -51 -86 -283 0 -224 1 -229 69 -279 26 -20
41 -21 231 -21 190 0 205 1 231 21 66 49 69 58 72 262 3 179 2 189 -20 232
-39 77 -64 85 -273 88 -171 3 -182 2 -224 -20z m367 -285 l3 -153 -156 0 -155
0 0 148 c0 82 3 152 7 156 4 3 72 5 152 4 l146 -3 3 -152z"/>
<path d="M2359 3721 c-44 -14 -77 -41 -93 -76 -13 -27 -16 -71 -16 -228 0
-185 1 -196 23 -227 44 -65 68 -71 287 -68 188 3 196 4 229 27 55 39 61 68 61
277 0 171 -2 189 -21 224 -39 68 -61 75 -264 77 -99 1 -192 -2 -206 -6z m341
-296 l0 -155 -150 0 -150 0 0 155 0 155 150 0 150 0 0 -155z"/>
<path d="M800 2773 c-19 -10 -45 -33 -57 -52 -22 -32 -23 -43 -23 -228 0 -221
6 -247 69 -285 34 -22 46 -23 233 -23 219 0 226 2 276 75 21 31 22 42 22 222
0 211 -6 240 -61 279 -33 23 -41 24 -229 27 -171 2 -199 0 -230 -15z m370
-288 l0 -155 -150 0 -150 0 0 155 0 155 150 0 150 0 0 -155z"/>
<path d="M1563 2770 c-30 -16 -48 -34 -63 -65 -20 -41 -21 -57 -18 -234 3
-211 7 -224 79 -266 31 -18 52 -20 224 -20 220 0 243 7 283 85 22 43 23 53 20
232 -3 204 -6 213 -72 262 -25 19 -44 21 -219 24 -179 2 -195 1 -234 -18z
m375 -282 l-3 -153 -150 0 -150 0 -3 153 -3 152 156 0 156 0 -3 -152z"/>
<path d="M2639 2615 c-56 -31 -64 -56 -67 -230 -4 -179 3 -217 48 -260 l31
-30 178 -3 c284 -5 291 1 291 269 0 167 -1 178 -23 210 -37 55 -53 59 -252 58
-136 0 -186 -3 -206 -14z m331 -255 l0 -120 -125 0 -125 0 0 120 0 120 125 0
125 0 0 -120z"/>
<path d="M3303 2610 c-57 -34 -63 -59 -63 -252 0 -261 7 -268 278 -268 159 0
171 1 203 23 63 42 70 70 67 262 -4 253 -7 255 -275 255 -159 0 -181 -2 -210
-20z m337 -250 l0 -120 -125 0 -125 0 0 120 0 120 125 0 125 0 0 -120z"/>
<path d="M3964 2610 c-52 -34 -59 -65 -59 -255 0 -190 5 -207 68 -245 28 -18
51 -20 200 -20 190 0 224 8 257 62 19 31 20 46 18 220 l-3 188 -33 32 -32 33
-193 3 c-179 2 -194 1 -223 -18z m336 -250 l0 -121 -122 3 -123 3 -3 118 -3
117 126 0 125 0 0 -120z"/>
<path d="M2639 1997 c-63 -42 -70 -70 -67 -262 4 -253 7 -255 275 -255 196 0
213 4 250 59 22 32 23 43 23 210 0 265 -7 271 -278 271 -159 0 -171 -1 -203
-23z m331 -247 l0 -120 -125 0 -125 0 0 120 0 120 125 0 125 0 0 -120z"/>
<path d="M3313 2005 c-64 -28 -73 -59 -73 -253 0 -193 6 -218 63 -252 29 -18
51 -20 210 -20 268 0 271 2 275 255 3 192 -4 220 -67 262 -32 22 -43 23 -205
23 -124 -1 -180 -5 -203 -15z m327 -255 l0 -120 -125 0 -125 0 0 120 0 120
125 0 125 0 0 -120z"/>
<path d="M3973 2000 c-63 -38 -68 -55 -68 -245 0 -192 7 -222 61 -256 31 -19
46 -20 223 -17 l191 3 32 33 33 32 3 188 c2 174 1 189 -18 220 -33 54 -67 62
-257 62 -149 0 -172 -2 -200 -20z m327 -250 l0 -120 -125 0 -125 0 0 113 c0
63 3 117 7 120 3 4 60 7 125 7 l118 0 0 -120z"/>
<path d="M792 1830 c-66 -41 -72 -62 -72 -280 0 -177 2 -198 20 -228 40 -66
63 -72 275 -72 213 0 241 7 282 69 22 32 23 43 23 230 0 178 -2 199 -20 229
-41 66 -62 72 -280 72 -177 0 -198 -2 -228 -20z m378 -280 l0 -150 -150 0
-150 0 0 150 0 150 150 0 150 0 0 -150z"/>
<path d="M1552 1830 c-60 -37 -72 -81 -72 -280 0 -163 2 -179 23 -220 37 -73
60 -80 282 -80 220 0 243 7 282 80 21 40 23 55 23 219 0 201 -11 241 -72 279
-33 21 -48 22 -234 22 -182 0 -202 -2 -232 -20z m388 -280 l0 -150 -155 0
-155 0 0 150 0 150 155 0 155 0 0 -150z"/>
<path d="M2670 1400 c-48 -12 -87 -58 -95 -113 -4 -25 -5 -110 -3 -189 3 -156
10 -179 65 -215 23 -16 52 -18 208 -18 269 0 275 6 275 270 0 261 -7 269 -255
272 -88 1 -176 -2 -195 -7z m300 -265 l0 -126 -122 3 -123 3 -3 109 c-1 61 0
116 2 123 4 10 36 13 126 13 l120 0 0 -125z"/>
<path d="M3335 1400 c-37 -11 -73 -44 -86 -77 -5 -13 -9 -99 -9 -190 0 -262 6
-268 275 -268 197 0 214 4 252 62 16 23 18 52 18 208 0 156 -2 185 -18 208
-37 56 -57 62 -237 64 -91 1 -179 -2 -195 -7z m300 -265 l0 -120 -122 -3 -123
-3 0 126 0 126 123 -3 122 -3 0 -120z"/>
<path d="M4000 1400 c-19 -5 -47 -22 -62 -38 -34 -39 -42 -98 -36 -275 4 -145
12 -169 65 -204 23 -16 52 -18 203 -18 196 0 227 7 260 60 18 29 20 50 20 209
0 265 -5 270 -255 273 -88 1 -176 -2 -195 -7z m300 -265 l0 -126 -122 3 -123
3 -3 109 c-1 61 0 116 2 123 4 10 36 13 126 13 l120 0 0 -125z"/>
<path d="M4030 4915 c-235 -58 -426 -256 -476 -495 -69 -325 132 -724 514
-1019 51 -39 100 -53 147 -40 73 20 307 238 407 380 90 125 168 303 168 380 0
43 -27 69 -70 69 -40 0 -66 -25 -79 -77 -18 -68 -72 -182 -127 -264 -57 -84
-200 -238 -278 -299 l-56 -43 -39 28 c-65 44 -206 189 -271 276 -224 302 -238
625 -36 824 69 68 136 107 221 130 230 60 460 -50 565 -269 30 -65 46 -87 64
-92 39 -10 68 -1 90 29 20 27 20 28 1 83 -26 78 -105 193 -172 253 -149 133
-383 192 -573 146z"/>
<path d="M4089 4637 c-271 -77 -355 -409 -150 -600 75 -70 127 -90 236 -91 77
-1 98 3 146 25 76 36 129 86 170 161 32 59 34 69 34 158 0 88 -3 101 -33 162
-56 115 -162 185 -289 194 -40 2 -87 -2 -114 -9z m180 -163 c71 -36 104 -86
109 -168 3 -50 -1 -69 -20 -106 -68 -126 -240 -146 -332 -39 -73 85 -69 197
10 275 68 68 146 81 233 38z"/>
</g>
</svg>
