<svg width="32" height="32" viewBox="0 0 32 32" fill="none" xmlns="http://www.w3.org/2000/svg">
<g clip-path="url(#clip0_69_319)">
<path d="M9.22498 0.100001C8.17498 0.356251 7.24998 1.18125 6.85623 2.21875C6.72498 2.58125 6.71873 2.66875 6.69998 5.29375L6.68123 8H4.84373C3.75623 8 2.86873 8.025 2.67498 8.06875C1.44998 8.31875 0.381226 9.3625 0.0937256 10.5688C-0.0437744 11.1688 -0.0437744 20.8313 0.0937256 21.4313C0.312476 22.3563 1.01873 23.2375 1.87498 23.6375C2.13123 23.7625 2.49373 23.8938 2.67498 23.9313C2.86873 23.975 3.75623 24 4.84373 24H6.68123L6.69998 26.7063C6.71873 29.3313 6.72498 29.4188 6.85623 29.7813C7.14998 30.5438 7.73748 31.225 8.44373 31.5938C9.25623 32.0188 8.97498 32.0063 16.175 31.9875L22.6562 31.9688L23.0562 31.825C24.025 31.475 24.7812 30.7313 25.1437 29.7688C25.275 29.4188 25.2812 29.3188 25.3 26.7063L25.3187 24H27.1562C28.2437 24 29.1312 23.975 29.325 23.9313C30.5812 23.6688 31.6687 22.5813 31.9312 21.325C32.025 20.8625 32.025 11.1375 31.9312 10.675C31.7437 9.75625 31.0125 8.79375 30.2 8.38125C29.5187 8.0375 29.2312 8 27.175 8H25.3187L25.3 5.29375C25.2812 2.68125 25.275 2.58125 25.1437 2.23125C24.7812 1.26875 24.025 0.525001 23.0562 0.175001L22.6562 0.031251L16.125 0.018751C10.65 0.012501 9.53748 0.025001 9.22498 0.100001ZM22.7062 1.4625C23.1187 1.61875 23.6375 2.1125 23.8187 2.5125C23.9687 2.84375 23.9687 2.85625 23.9875 5.41875L24.0062 8H16H7.99373L8.01248 5.41875C8.03123 2.88125 8.03123 2.8375 8.17498 2.53125C8.33123 2.1875 8.66248 1.8125 8.99373 1.6125C9.45623 1.31875 9.48123 1.31875 16.125 1.33125C22.0812 1.34375 22.4187 1.35 22.7062 1.4625ZM29.4375 9.50625C29.9375 9.7375 30.2187 10.0125 30.45 10.4875L30.6562 10.9063V16V21.0938L30.45 21.5125C30.2187 21.9875 29.9375 22.2625 29.4375 22.4938L29.0937 22.6563H27.2187H25.3437L25.3125 20.1813C25.2812 17.4688 25.2937 17.5625 24.8937 17.3938C24.5937 17.2688 7.40623 17.2688 7.10623 17.3938C6.70623 17.5625 6.71873 17.4688 6.68748 20.1813L6.65623 22.6563H4.78123H2.90623L2.48748 22.45C2.01248 22.2188 1.73748 21.9375 1.50623 21.4375L1.34373 21.0938V16V10.9063L1.50623 10.5625C1.79998 9.94375 2.23123 9.56875 2.86873 9.4C3.09373 9.3375 5.99373 9.325 16.125 9.33125L29.0937 9.34375L29.4375 9.50625ZM23.9875 23.9188L23.9687 29.1563L23.8187 29.4875C23.625 29.9125 23.1125 30.3875 22.675 30.5438C22.3625 30.65 21.9937 30.6563 16 30.6563C10.0062 30.6563 9.63748 30.65 9.32498 30.5438C8.88748 30.3875 8.37498 29.9125 8.18123 29.4875L8.03123 29.1563L8.01248 23.9188L7.99998 18.6875H16H24L23.9875 23.9188Z" fill="#2C459E"/>
<path d="M11.0875 21.4C10.8313 21.5125 10.6875 21.725 10.6875 22C10.6875 22.2813 10.8313 22.4875 11.1 22.6C11.4188 22.7313 13.9938 22.725 14.2813 22.5875C14.475 22.5 14.6875 22.1875 14.6875 22C14.6875 21.8125 14.475 21.5 14.2813 21.4125C14 21.275 11.3875 21.2688 11.0875 21.4Z" fill="#2C459E"/>
<path d="M10.9875 24.1062C10.6375 24.325 10.575 24.8375 10.8687 25.1312L11.05 25.3125H15.275C18.25 25.3125 19.5375 25.2937 19.65 25.2437C20.025 25.0687 20.0937 24.4812 19.775 24.1812L19.6125 24.0312L15.3875 24.0187C11.525 24.0062 11.1437 24.0125 10.9875 24.1062Z" fill="#2C459E"/>
<path d="M10.8687 26.8688C10.5625 27.175 10.6437 27.7063 11.025 27.9063C11.2 27.9938 11.6187 28.0063 15.4187 27.9875L19.6125 27.9688L19.775 27.8188C20.0937 27.5188 20.025 26.9313 19.65 26.7563C19.5375 26.7063 18.25 26.6875 15.275 26.6875H11.05L10.8687 26.8688Z" fill="#2C459E"/>
</g>
<defs>
<clipPath id="clip0_69_319">
<rect width="32" height="32" fill="white"/>
</clipPath>
</defs>
</svg>
