<svg width="15" height="15" viewBox="0 0 15 15" fill="none" xmlns="http://www.w3.org/2000/svg">
<path d="M0 6.42857H6.42857V0H0V6.42857ZM2.14286 2.14286H4.28571V4.28571H2.14286V2.14286ZM8.57143 0V6.42857H15V0H8.57143ZM12.8571 4.28571H10.7143V2.14286H12.8571V4.28571ZM0 15H6.42857V8.57143H0V15ZM2.14286 10.7143H4.28571V12.8571H2.14286V10.7143ZM13.9286 8.57143H15V12.8571H11.7857V11.7857H10.7143V15H8.57143V8.57143H11.7857V9.64286H13.9286V8.57143ZM13.9286 13.9286H15V15H13.9286V13.9286ZM11.7857 13.9286H12.8571V15H11.7857V13.9286Z" fill="#2C459E"/>
</svg>
