<svg width="39" height="39" viewBox="0 0 39 39" fill="none" xmlns="http://www.w3.org/2000/svg">
<path d="M19.043 6.17754C18.8221 6.26895 18.5326 6.52793 18.4107 6.74121C18.3422 6.85547 18.3117 9.19395 18.2813 15.5695L18.2432 24.2455L16.1332 22.5621C13.9242 20.8025 13.7871 20.7188 13.2158 20.8254C12.7207 20.9168 12.2637 21.4729 12.2637 21.968C12.2637 22.0746 12.317 22.3031 12.3855 22.4707C12.4922 22.7297 12.9492 23.1258 15.6533 25.2891C17.3824 26.6678 18.9287 27.8561 19.0887 27.9246C19.7209 28.1912 19.7057 28.1988 23.301 25.3272C25.0986 23.8875 26.6297 22.623 26.6982 22.5164C27.14 21.8461 26.7744 20.9473 25.9746 20.7111C25.4414 20.5512 25.2357 20.6654 22.9354 22.5088C21.7623 23.4533 20.7797 24.2227 20.7568 24.2227C20.7416 24.2227 20.7111 20.315 20.7035 15.5467C20.6807 6.91641 20.6807 6.86309 20.5207 6.65742C20.4369 6.54316 20.277 6.37559 20.1703 6.29941C19.9342 6.12422 19.3248 6.05566 19.043 6.17754Z" fill="#2C459E"/>
<path d="M5.59863 23.2629C5.3168 23.3924 5.06543 23.659 4.95879 23.9408C4.90547 24.0779 4.875 25.1443 4.875 26.9191C4.875 29.151 4.89785 29.7604 4.98926 30.126C5.33203 31.4361 6.35273 32.4492 7.67051 32.792C8.32559 32.9672 30.6744 32.9672 31.3295 32.792C32.6854 32.4416 33.767 31.3219 34.0488 29.9889C34.1021 29.7223 34.125 28.6102 34.1098 26.7516C34.0869 24.0398 34.0793 23.918 33.927 23.7199C33.6299 23.3162 33.3861 23.1943 32.9062 23.1943C32.4264 23.1943 32.1826 23.3162 31.8855 23.7199C31.7332 23.918 31.7256 24.0475 31.6875 26.8125C31.6494 29.5775 31.6418 29.707 31.4895 29.9051C31.4057 30.0193 31.2381 30.1869 31.1238 30.2707C30.9182 30.4307 30.9105 30.4307 19.5 30.4307C8.08945 30.4307 8.08184 30.4307 7.87617 30.2707C7.76191 30.1869 7.59434 30.0193 7.51055 29.9051C7.3582 29.707 7.35059 29.5775 7.3125 26.8125C7.27441 24.0475 7.2668 23.918 7.11445 23.7199C7.03066 23.6057 6.8707 23.4381 6.76406 23.3619C6.50508 23.1715 5.90332 23.1182 5.59863 23.2629Z" fill="#2C459E"/>
</svg>
