<?xml version="1.0" standalone="no"?>
<!DOCTYPE svg PUBLIC "-//W3C//DTD SVG 20010904//EN"
 "http://www.w3.org/TR/2001/REC-SVG-20010904/DTD/svg10.dtd">
<svg version="1.0" xmlns="http://www.w3.org/2000/svg"
 width="512.000000pt" height="512.000000pt" viewBox="0 0 512.000000 512.000000"
 preserveAspectRatio="xMidYMid meet">

<g transform="translate(0.000000,512.000000) scale(0.100000,-0.100000)"
fill="#000000" stroke="none">
<path d="M985 5015 c-24 -23 -25 -29 -25 -160 l0 -135 -135 0 c-131 0 -137 -1
-160 -25 l-25 -24 0 -2271 0 -2271 25 -24 24 -25 1711 0 1711 0 24 25 c24 23
25 29 25 160 l0 135 135 0 c131 0 137 1 160 25 l25 24 0 2271 0 2271 -25 24
-24 25 -1711 0 -1711 0 -24 -25z m3335 -2295 l0 -2160 -80 0 -80 0 0 1697 0
1698 -383 382 -382 383 -1138 0 -1137 0 0 80 0 80 1600 0 1600 0 0 -2160z
m-1040 1702 l0 -139 -203 -135 -203 -135 -144 73 c-80 40 -158 73 -175 73 -25
1 -61 -31 -260 -228 l-230 -230 -180 110 c-143 87 -186 109 -210 107 -19 -3
-164 -94 -392 -246 -200 -133 -363 -245 -363 -248 0 -3 18 -32 41 -65 25 -37
46 -58 54 -55 7 2 156 100 330 216 174 116 323 214 330 217 8 2 97 -45 199
-106 117 -71 194 -111 212 -111 23 0 68 40 260 231 l231 231 141 -71 c78 -39
152 -71 164 -71 13 0 107 56 211 125 l187 125 0 -100 c0 -94 2 -103 25 -125
l24 -25 336 0 335 0 0 -1800 0 -1800 -1600 0 -1600 0 0 2160 0 2160 1240 0
1240 0 0 -138z m385 -202 l220 -220 -223 0 -222 0 0 220 c0 121 1 220 3 220 1
0 101 -99 222 -220z"/>
<path d="M1615 3266 c-218 -43 -405 -168 -525 -353 -89 -136 -125 -259 -125
-433 0 -174 36 -297 124 -432 243 -371 737 -478 1104 -238 370 241 477 738
238 1102 -114 174 -273 288 -481 344 -78 22 -250 26 -335 10z m65 -235 l0 -79
-34 -6 c-19 -4 -66 -22 -104 -41 -211 -106 -315 -368 -232 -587 12 -32 19 -62
16 -66 -7 -12 -111 -92 -118 -92 -12 0 -66 146 -77 204 -58 315 132 629 439
727 30 10 67 18 83 18 l27 1 0 -79z m298 49 c169 -60 322 -213 382 -382 11
-31 22 -74 26 -97 l7 -41 -81 0 -80 0 -6 33 c-12 62 -66 158 -123 218 -58 61
-162 122 -229 135 l-34 6 0 80 0 81 41 -7 c23 -4 66 -15 97 -26z m-83 -311
c237 -112 246 -441 15 -568 -60 -33 -71 -36 -150 -36 -78 0 -91 3 -148 34
-249 135 -220 488 48 585 63 23 170 16 235 -15z m495 -386 c0 -54 -45 -173
-92 -246 l-31 -48 -57 56 -56 56 32 65 c19 36 36 81 40 99 l6 35 79 0 c69 0
79 -2 79 -17z m-849 -329 c143 -72 306 -70 445 5 l52 28 57 -57 56 -57 -49
-32 c-232 -149 -550 -127 -757 53 -39 34 -39 35 -20 49 11 8 40 31 64 50 l45
36 29 -25 c17 -14 52 -36 78 -50z"/>
<path d="M3040 3040 l0 -80 400 0 400 0 0 80 0 80 -400 0 -400 0 0 -80z"/>
<path d="M2720 2720 l0 -80 560 0 560 0 0 80 0 80 -560 0 -560 0 0 -80z"/>
<path d="M2720 2400 l0 -80 560 0 560 0 0 80 0 80 -560 0 -560 0 0 -80z"/>
<path d="M2720 2080 l0 -80 560 0 560 0 0 80 0 80 -560 0 -560 0 0 -80z"/>
<path d="M960 1440 l0 -80 400 0 400 0 0 80 0 80 -400 0 -400 0 0 -80z"/>
<path d="M3225 1495 c-23 -22 -25 -32 -25 -120 l0 -95 -135 0 c-131 0 -137 -1
-160 -25 -24 -23 -25 -29 -25 -160 l0 -135 -135 0 c-131 0 -137 -1 -160 -25
-25 -24 -25 -27 -25 -200 l0 -175 -80 0 -80 0 0 -80 0 -80 720 0 720 0 0 80 0
80 -80 0 -80 0 0 455 0 456 -25 24 c-24 25 -26 25 -215 25 -189 0 -191 0 -215
-25z m295 -535 l0 -400 -80 0 -80 0 0 400 0 400 80 0 80 0 0 -400z m-320 -120
l0 -280 -80 0 -80 0 0 280 0 280 80 0 80 0 0 -280z m-320 -160 l0 -120 -80 0
-80 0 0 120 0 120 80 0 80 0 0 -120z"/>
<path d="M960 1120 l0 -80 640 0 640 0 0 80 0 80 -640 0 -640 0 0 -80z"/>
<path d="M960 800 l0 -80 640 0 640 0 0 80 0 80 -640 0 -640 0 0 -80z"/>
<path d="M960 480 l0 -80 640 0 640 0 0 80 0 80 -640 0 -640 0 0 -80z"/>
</g>
</svg>
