<svg width="48" height="48" viewBox="0 0 48 48" fill="none" xmlns="http://www.w3.org/2000/svg">
<circle cx="24" cy="24" r="24" fill="white"/>
<path d="M33.9055 31.5859C33.3336 30.2387 32.5036 29.015 31.4618 27.9829C30.4232 26.9479 29.1928 26.1226 27.8387 25.5528C27.8266 25.5467 27.8144 25.5437 27.8023 25.5377C29.6912 24.1809 30.9191 21.9709 30.9191 19.4774C30.9191 15.3467 27.5537 12 23.4 12C19.2463 12 15.8809 15.3467 15.8809 19.4774C15.8809 21.9709 17.1088 24.1809 18.9977 25.5407C18.9856 25.5467 18.9734 25.5497 18.9613 25.5558C17.603 26.1256 16.3842 26.9427 15.3382 27.9859C14.2974 29.0188 13.4675 30.2423 12.8945 31.5889C12.3315 32.9073 12.0279 34.3207 12.0001 35.7528C11.9993 35.7849 12.0049 35.817 12.0168 35.8469C12.0286 35.8769 12.0463 35.9042 12.0689 35.9272C12.0915 35.9503 12.1186 35.9686 12.1484 35.9811C12.1782 35.9936 12.2103 36 12.2426 36H14.0618C14.1952 36 14.3013 35.8945 14.3043 35.7648C14.365 33.4372 15.3048 31.2573 16.9663 29.605C18.6854 27.8955 20.9684 26.9548 23.4 26.9548C25.8316 26.9548 28.1146 27.8955 29.8337 29.605C31.4952 31.2573 32.435 33.4372 32.4957 35.7648C32.4987 35.8975 32.6048 36 32.7382 36H34.5574C34.5897 36 34.6218 35.9936 34.6516 35.9811C34.6814 35.9686 34.7085 35.9503 34.7311 35.9272C34.7537 35.9042 34.7714 35.8769 34.7832 35.8469C34.7951 35.817 34.8007 35.7849 34.7999 35.7528C34.7696 34.3116 34.4694 32.9095 33.9055 31.5859ZM23.4 24.6633C22.0084 24.6633 20.6986 24.1236 19.7132 23.1437C18.7279 22.1638 18.1851 20.8613 18.1851 19.4774C18.1851 18.0935 18.7279 16.791 19.7132 15.8111C20.6986 14.8312 22.0084 14.2915 23.4 14.2915C24.7916 14.2915 26.1014 14.8312 27.0868 15.8111C28.0721 16.791 28.6149 18.0935 28.6149 19.4774C28.6149 20.8613 28.0721 22.1638 27.0868 23.1437C26.1014 24.1236 24.7916 24.6633 23.4 24.6633Z" fill="#49454F"/>
</svg>
