<?xml version="1.0" standalone="no"?>
<!DOCTYPE svg PUBLIC "-//W3C//DTD SVG 20010904//EN"
 "http://www.w3.org/TR/2001/REC-SVG-20010904/DTD/svg10.dtd">
<svg version="1.0" xmlns="http://www.w3.org/2000/svg"
 width="512.000000pt" height="512.000000pt" viewBox="0 0 512.000000 512.000000"
 preserveAspectRatio="xMidYMid meet">

<g transform="translate(0.000000,512.000000) scale(0.100000,-0.100000)"
fill="#000000" stroke="none">
<path d="M3990 5070 c-267 -37 -521 -196 -679 -424 -109 -158 -161 -316 -168
-511 -4 -115 -2 -141 20 -225 48 -183 150 -408 313 -687 142 -243 427 -668
484 -722 42 -39 99 -61 166 -61 114 0 159 32 272 193 236 336 419 636 543 892
164 337 203 508 164 726 -81 467 -469 807 -940 824 -60 2 -139 0 -175 -5z
m240 -161 c175 -21 336 -98 467 -222 138 -131 218 -285 250 -479 20 -122 11
-205 -38 -354 -61 -184 -244 -528 -446 -838 -129 -198 -261 -384 -286 -401
-28 -20 -77 -19 -103 3 -12 9 -69 85 -127 169 -398 578 -630 1034 -645 1270
-22 364 226 714 583 822 127 38 217 46 345 30z"/>
<path d="M4025 4643 c-60 -13 -123 -38 -142 -56 -34 -30 -32 -89 4 -117 30
-23 39 -23 143 5 95 25 184 16 276 -29 86 -43 144 -103 187 -194 29 -61 32
-75 32 -167 0 -93 -2 -105 -33 -167 -125 -255 -450 -311 -648 -114 -27 28 -63
78 -79 111 -25 50 -30 74 -33 155 -4 89 -2 102 27 175 28 69 30 82 20 107 -18
43 -65 60 -114 42 -20 -8 -58 -82 -81 -159 -23 -79 -23 -219 0 -300 58 -201
227 -357 431 -400 88 -18 142 -18 227 0 112 23 193 68 278 154 128 129 176
253 168 431 -15 301 -264 533 -568 529 -41 -1 -84 -3 -95 -6z"/>
<path d="M2593 2816 c-87 -28 -132 -55 -202 -121 -229 -213 -236 -558 -16
-781 76 -78 174 -133 273 -153 34 -7 216 -11 506 -11 261 0 476 -4 507 -10
207 -39 359 -222 359 -434 0 -209 -140 -389 -340 -435 -29 -7 -332 -11 -838
-11 -584 0 -799 -3 -815 -12 -52 -27 -62 -83 -22 -123 l24 -25 819 0 820 0 80
23 c333 97 515 452 402 783 -59 170 -211 316 -390 376 -62 21 -86 22 -575 28
-440 5 -516 8 -551 22 -97 38 -171 105 -221 200 -26 49 -28 62 -28 163 0 100
2 115 28 167 38 77 107 144 187 182 l65 31 328 5 329 5 25 29 c29 35 26 80 -8
109 -19 15 -51 17 -348 17 -313 -1 -329 -2 -398 -24z"/>
<path d="M789 1569 c-717 -240 -712 -238 -761 -333 -33 -61 -32 -165 3 -231
42 -83 80 -104 360 -197 159 -53 259 -91 273 -104 13 -14 50 -109 100 -260 87
-265 109 -311 167 -354 118 -85 296 -48 366 75 27 47 440 1281 449 1341 9 60
-19 146 -63 195 -49 54 -104 81 -178 85 -56 3 -103 -11 -716 -217z m759 36
c16 -14 33 -37 36 -51 9 -34 -405 -1283 -437 -1320 -30 -33 -74 -40 -113 -15
-29 18 -38 39 -119 283 -88 262 -88 263 -139 314 -51 51 -52 51 -312 138 -149
50 -269 95 -278 105 -9 10 -19 34 -22 53 -5 27 -1 40 19 63 21 26 105 56 658
241 349 117 644 213 656 213 12 1 35 -10 51 -24z"/>
</g>
</svg>
