<svg width="26" height="29" viewBox="0 0 26 29" fill="none" xmlns="http://www.w3.org/2000/svg">
<path fill-rule="evenodd" clip-rule="evenodd" d="M21.6667 20.2222C22.8159 20.2222 23.9181 20.6788 24.7308 21.4914C25.5435 22.3041 26 23.4063 26 24.5556C26 25.7048 25.5435 26.807 24.7308 27.6197C23.9181 28.4323 22.8159 28.8889 21.6667 28.8889C20.5174 28.8889 19.4152 28.4323 18.6025 27.6197C17.7899 26.807 17.3333 25.7048 17.3333 24.5556C17.3333 23.4063 17.7899 22.3041 18.6025 21.4914C19.4152 20.6788 20.5174 20.2222 21.6667 20.2222ZM18.0556 2.88889C19.7795 2.88889 21.4328 3.57371 22.6517 4.79269C23.8707 6.01168 24.5556 7.66498 24.5556 9.38889C24.5556 11.1128 23.8707 12.7661 22.6517 13.9851C21.4328 15.2041 19.7795 15.8889 18.0556 15.8889H7.94444C6.98672 15.8889 6.06822 16.2693 5.391 16.9466C4.71379 17.6238 4.33333 18.5423 4.33333 19.5C4.33333 20.4577 4.71379 21.3762 5.391 22.0534C6.06822 22.7307 6.98672 23.1111 7.94444 23.1111H14.4444C14.8275 23.1111 15.1949 23.2633 15.4658 23.5342C15.7367 23.8051 15.8889 24.1725 15.8889 24.5556C15.8889 24.9386 15.7367 25.306 15.4658 25.5769C15.1949 25.8478 14.8275 26 14.4444 26H7.94444C6.22054 26 4.56724 25.3152 3.34825 24.0962C2.12926 22.8772 1.44444 21.2239 1.44444 19.5C1.44444 17.7761 2.12926 16.1228 3.34825 14.9038C4.56724 13.6848 6.22054 13 7.94444 13H18.0556C19.0133 13 19.9318 12.6195 20.609 11.9423C21.2862 11.2651 21.6667 10.3466 21.6667 9.38889C21.6667 8.43116 21.2862 7.51266 20.609 6.83545C19.9318 6.15823 19.0133 5.77778 18.0556 5.77778H11.5556C11.1725 5.77778 10.8051 5.6256 10.5342 5.35471C10.2633 5.08382 10.1111 4.71642 10.1111 4.33333C10.1111 3.95024 10.2633 3.58284 10.5342 3.31196C10.8051 3.04107 11.1725 2.88889 11.5556 2.88889H18.0556ZM21.6667 23.1111C21.2836 23.1111 20.9162 23.2633 20.6453 23.5342C20.3744 23.8051 20.2222 24.1725 20.2222 24.5556C20.2222 24.9386 20.3744 25.306 20.6453 25.5769C20.9162 25.8478 21.2836 26 21.6667 26C22.0498 26 22.4172 25.8478 22.688 25.5769C22.9589 25.306 23.1111 24.9386 23.1111 24.5556C23.1111 24.1725 22.9589 23.8051 22.688 23.5342C22.4172 23.2633 22.0498 23.1111 21.6667 23.1111ZM4.33333 0C5.4826 0 6.58481 0.456546 7.39746 1.2692C8.21012 2.08186 8.66667 3.18406 8.66667 4.33333C8.66667 5.4826 8.21012 6.58481 7.39746 7.39746C6.58481 8.21012 5.4826 8.66667 4.33333 8.66667C3.18406 8.66667 2.08186 8.21012 1.2692 7.39746C0.456546 6.58481 0 5.4826 0 4.33333C0 3.18406 0.456546 2.08186 1.2692 1.2692C2.08186 0.456546 3.18406 0 4.33333 0ZM4.33333 2.88889C3.95024 2.88889 3.58284 3.04107 3.31196 3.31196C3.04107 3.58284 2.88889 3.95024 2.88889 4.33333C2.88889 4.71642 3.04107 5.08382 3.31196 5.35471C3.58284 5.6256 3.95024 5.77778 4.33333 5.77778C4.71642 5.77778 5.08382 5.6256 5.35471 5.35471C5.6256 5.08382 5.77778 4.71642 5.77778 4.33333C5.77778 3.95024 5.6256 3.58284 5.35471 3.31196C5.08382 3.04107 4.71642 2.88889 4.33333 2.88889Z" fill="white"/>
</svg>
