<?xml version="1.0" standalone="no"?>
<!DOCTYPE svg PUBLIC "-//W3C//DTD SVG 20010904//EN"
 "http://www.w3.org/TR/2001/REC-SVG-20010904/DTD/svg10.dtd">
<svg version="1.0" xmlns="http://www.w3.org/2000/svg"
 width="512.000000pt" height="512.000000pt" viewBox="0 0 512.000000 512.000000"
 preserveAspectRatio="xMidYMid meet">

<g transform="translate(0.000000,512.000000) scale(0.100000,-0.100000)"
fill="#000000" stroke="none">
<path d="M1235 5100 c-102 -40 -107 -48 -506 -740 -205 -355 -378 -665 -385
-689 -12 -37 -14 -331 -14 -1695 0 -1830 -4 -1716 65 -1821 20 -30 58 -68 88
-88 106 -72 -50 -67 2077 -67 2127 0 1971 -5 2077 67 30 20 68 58 88 88 69
105 65 -10 65 1837 l0 1669 -21 42 c-12 23 -186 326 -386 672 -392 679 -396
686 -501 725 -52 20 -79 20 -1325 19 -1234 0 -1274 -1 -1322 -19z m1175 -765
l0 -485 -811 0 c-724 0 -811 2 -805 15 5 13 306 539 488 853 l60 102 534 0
534 0 0 -485z m1644 10 c149 -258 275 -476 279 -482 7 -10 -156 -13 -802 -13
l-811 0 0 485 0 485 531 -2 531 -3 272 -470z m436 -2402 c0 -1481 -1 -1608
-17 -1625 -15 -17 -88 -18 -1911 -18 -1750 0 -1897 1 -1914 17 -17 15 -18 79
-18 1625 l0 1608 1930 0 1930 0 0 -1607z"/>
<path d="M3070 2449 c-14 -5 -180 -165 -370 -355 l-345 -344 -135 136 c-74 74
-147 142 -162 150 -63 33 -149 6 -188 -58 -24 -39 -26 -107 -6 -146 18 -32
402 -415 433 -431 27 -14 83 -14 120 0 32 12 827 800 849 841 8 15 14 48 14
73 0 84 -50 137 -134 142 -28 1 -62 -2 -76 -8z"/>
</g>
</svg>
