<svg width="24" height="23" viewBox="0 0 24 23" fill="none" xmlns="http://www.w3.org/2000/svg">
<path d="M21.4737 2.52632H1.26316V0H21.4737V2.52632ZM14.2737 10.1053C13.2632 11.3179 12.6316 12.8589 12.6316 14.5263C12.6316 15.9663 13.1747 17.5074 13.8947 18.9474V20.2105H1.26316V12.6316H0V10.1053L1.26316 3.78947H21.4737L22.3579 8.21053C21.5242 7.80632 20.6147 7.57895 19.6547 7.57895L19.4021 6.31579H3.33474L2.57684 10.1053H14.2737ZM11.3684 12.6316H3.78947V17.6842H11.3684V12.6316ZM24 14.5263C24 17.8105 19.5789 22.7368 19.5789 22.7368C19.5789 22.7368 15.1579 17.8105 15.1579 14.5263C15.1579 12.1263 17.1789 10.1053 19.5789 10.1053C21.9789 10.1053 24 12.1263 24 14.5263ZM21.0947 14.6526C21.0947 13.8947 20.3368 13.1368 19.5789 13.1368C18.8211 13.1368 18.0632 13.7684 18.0632 14.6526C18.0632 15.4105 18.6947 16.1684 19.5789 16.1684C20.4632 16.1684 21.2211 15.4105 21.0947 14.6526Z" fill="#49454F"/>
</svg>
