<svg width="14" height="16" viewBox="0 0 14 16" fill="none" xmlns="http://www.w3.org/2000/svg">
<path d="M13 2.86224V12.8622M1.972 1.12924C1.88355 1.05934 1.77719 1.01578 1.66513 1.00355C1.55306 0.991309 1.43981 1.01089 1.33836 1.06005C1.23691 1.10921 1.15136 1.18596 1.09152 1.2815C1.03167 1.37704 0.999955 1.48751 1 1.60024V14.1242C1.00014 14.2369 1.032 14.3472 1.09191 14.4426C1.15183 14.538 1.23739 14.6146 1.33881 14.6636C1.44022 14.7127 1.5534 14.7322 1.66537 14.7199C1.77735 14.7076 1.88362 14.6641 1.972 14.5942L9.903 8.33324C9.97416 8.27708 10.0317 8.20552 10.0712 8.12395C10.1108 8.04237 10.1313 7.95289 10.1313 7.86224C10.1313 7.77158 10.1108 7.68211 10.0712 7.60053C10.0317 7.51896 9.97416 7.4474 9.903 7.39124L1.972 1.12924Z" stroke="white" stroke-width="1.5" stroke-linecap="round" stroke-linejoin="round"/>
</svg>
