<svg width="27" height="22" viewBox="0 0 27 22" fill="none" xmlns="http://www.w3.org/2000/svg">
<path d="M6.31354 0.866699C2.8438 0.866699 0 3.70178 0 7.1622C0 8.50307 0.428118 9.74924 1.15297 10.7735L5.54328 18.363C6.1581 19.1663 6.56698 19.0139 7.07838 18.3209L11.9206 10.0803C12.0183 9.90287 12.0949 9.71467 12.162 9.52226C12.4693 8.77337 12.6272 7.97167 12.6271 7.1622C12.6271 3.70178 9.78418 0.866699 6.31354 0.866699ZM6.31354 3.81662C8.18234 3.81662 9.66873 5.2991 9.66873 7.1625C9.66873 9.02589 8.18234 10.5078 6.31354 10.5078C4.44503 10.5078 2.95834 9.02559 2.95834 7.1625C2.95834 5.2991 4.44503 3.81662 6.31354 3.81662Z" fill="white"/>
<path fill-rule="evenodd" clip-rule="evenodd" d="M26.5196 2.49365C25.844 2.50868 25.1667 2.53725 24.4881 2.58745L24.5927 4.25062C25.2445 4.20341 25.8975 4.17304 26.5508 4.15952L26.5196 2.49365ZM22.9193 2.74018C21.8761 2.86976 20.8238 3.05435 19.7836 3.35109L20.1754 4.96285C21.1206 4.69347 22.1001 4.5194 23.0949 4.39583L22.9193 2.74018ZM18.226 3.90909C17.9143 4.04667 17.6125 4.20569 17.3228 4.38501L17.3216 4.38651L17.3198 4.38711C16.9064 4.64747 16.4708 4.97788 16.1152 5.45801C15.8575 5.80585 15.6467 6.2457 15.5974 6.76581L17.1292 6.93568C17.1406 6.81361 17.2032 6.65247 17.3156 6.50094H17.3162V6.50034C17.4975 6.25502 17.7693 6.03224 18.0925 5.8284L18.0937 5.8278C18.3241 5.68562 18.5639 5.55945 18.8116 5.45019L18.226 3.90909ZM17.4374 7.67767L16.4444 8.9509C16.6798 9.16616 16.9266 9.33151 17.165 9.46981L17.168 9.47131L17.171 9.47312C17.9623 9.92318 18.7783 10.1772 19.5347 10.4183L19.9694 8.81951C19.2133 8.5784 18.5005 8.3457 17.8896 7.99875C17.7146 7.89714 17.5612 7.79101 17.4374 7.67767ZM21.4465 9.26928L21.022 10.8708L21.2228 10.9333L21.4693 11.0121C22.2853 11.2776 23.067 11.5611 23.7657 11.9534L24.4746 10.4743C23.6298 9.99954 22.7528 9.68928 21.9077 9.41449L21.9053 9.41389L21.6521 9.33302L21.4465 9.26928ZM25.9162 11.5842L24.8269 12.7628C25.0843 13.0415 25.277 13.3767 25.3708 13.723L25.3714 13.7248L25.372 13.7275C25.4838 14.1319 25.4841 14.6075 25.3966 15.088L26.9071 15.4102C27.0304 14.732 27.0502 13.9873 26.8476 13.2522C26.6711 12.6022 26.3344 12.0376 25.9162 11.5842ZM24.8693 16.0921C24.7029 16.2679 24.5189 16.4263 24.3203 16.5647H24.3197C23.7786 16.9453 23.1508 17.2321 22.484 17.4787L22.9813 19.0553C23.7106 18.7856 24.4595 18.4549 25.1594 17.9624L25.1612 17.9609L25.1621 17.9603C25.4496 17.759 25.7155 17.5286 25.9555 17.2727L24.8693 16.0921ZM21.0692 17.9227C20.1032 18.1825 19.1159 18.3803 18.1165 18.5481L18.3522 20.1953C19.3808 20.0224 20.4135 19.8159 21.4399 19.5399L21.0692 17.9227ZM16.613 18.7754C15.6071 18.9128 14.5957 19.0249 13.5813 19.1205L13.7142 20.7807C14.7442 20.6838 15.776 20.5699 16.8063 20.4289L16.613 18.7754ZM12.0567 19.2513C11.0403 19.3319 10.0214 19.3974 9.0016 19.4527L9.07856 21.1171C10.1083 21.0615 11.1389 20.995 12.1692 20.9132L12.0567 19.2513ZM7.46921 19.5279C6.858 19.5564 6.24529 19.5799 5.63107 19.6015L5.68158 21.2674C6.29964 21.2462 6.91757 21.2215 7.53536 21.1934L7.46921 19.5279Z" fill="white"/>
</svg>
