<svg width="32" height="32" viewBox="0 0 32 32" fill="none" xmlns="http://www.w3.org/2000/svg">
<g clip-path="url(#clip0_69_306)">
<path d="M6.38125 0.112502C6.2625 0.168752 6.10625 0.300002 6.0375 0.393752C5.9125 0.562502 5.90625 0.650002 5.90625 2.29375V4.0125L6.05625 4.13125C6.23125 4.26875 6.4875 4.2875 6.6625 4.1625C6.775 4.08125 6.78125 3.9625 6.8125 2.51875L6.84375 0.968752L8.26875 0.950002L9.6875 0.937502V1.975C9.6875 3.55625 9.76875 3.65 11.125 3.6125C12.3125 3.58125 12.375 3.5 12.375 1.9375V0.937502H13.7813H15.1875V4.1875V7.43125L13.525 7.45C11.8625 7.46875 11.8625 7.46875 11.7438 7.61875C11.6313 7.75625 11.625 7.8875 11.625 9.7875V11.8125H9.21875H6.8125V8.63125V5.44375L6.65 5.31875C6.43125 5.15 6.29375 5.15625 6.08125 5.3375L5.90625 5.4875L5.8875 8.65L5.86875 11.8063L4.375 11.825C2.98125 11.8438 2.875 11.85 2.70625 11.975C2.3 12.2688 2.3125 12.1688 2.3125 16.0438V19.5625H1.4875C0.525 19.5625 0.2875 19.6375 0.1125 20C0.00625 20.2063 0 20.6188 0 25.9563V31.6938L0.15625 31.8438L0.30625 32H2.925C5.48125 32 5.55 31.9938 5.7125 31.8688C5.91875 31.7063 5.9375 31.375 5.75 31.1875C5.63125 31.0688 5.54375 31.0625 3.28125 31.0625H0.9375V25.7813V20.5H4.25H7.5625V21.5625C7.5625 23.1063 7.625 23.1875 8.88125 23.1875C10.1125 23.1875 10.1875 23.0938 10.1875 21.5688V20.5H13.5H16.8125V25.7813V31.0625H11.975C7.36875 31.0625 7.13125 31.0688 6.99375 31.175C6.7875 31.3438 6.80625 31.6625 7.025 31.8563L7.19375 32L19.4813 31.9875L31.7625 31.9688L31.8813 31.8188C31.9938 31.6813 32 31.5125 32 27.1938C32 23.0563 31.9938 22.7 31.8875 22.5C31.675 22.0688 31.6188 22.0625 29.0813 22.0625H26.8125V18.3875V14.7063L26.6688 14.575C26.475 14.3938 26.2188 14.4 26.0313 14.5938L25.875 14.7438V18.4063V22.0625H21.8125H17.75V20.9688C17.75 19.8875 17.75 19.8688 17.5938 19.7188L17.4438 19.5625H15H12.5625V13.9688V8.375H15.2188H17.875V9.375C17.875 10.4438 17.9188 10.6688 18.1875 10.9063C18.3125 11.0188 18.4125 11.0313 19.225 11.0313H20.125L20.325 10.825L20.5313 10.625L20.55 9.5L20.5688 8.375H23.225H25.875V10.7188C25.875 12.3 25.9 13.1063 25.9438 13.2063C26.0125 13.3625 26.2375 13.5 26.4125 13.5C26.4625 13.5 26.575 13.4313 26.6563 13.3438L26.8125 13.1938V10.6125C26.8125 8.2 26.8063 8.01875 26.6938 7.8375C26.4375 7.41875 26.675 7.4375 21.1313 7.4375H16.125V4.0125C16.125 0.693752 16.1188 0.587502 16 0.387502C15.7563 -0.0124981 15.8938 1.90735e-06 11.0188 1.90735e-06C6.93125 1.90735e-06 6.575 0.00625191 6.38125 0.112502ZM11.4375 1.8125V2.6875H11.0313H10.625V1.8125V0.937502H11.0313H11.4375V1.8125ZM19.625 9.25V10.125H19.2188H18.8125V9.25V8.375H19.2188H19.625V9.25ZM6.125 13.8125C6.125 15.375 6.175 15.4375 7.45 15.4375C8.1 15.4375 8.25 15.4188 8.41875 15.3125C8.75 15.1125 8.775 15.0063 8.8 13.825L8.825 12.75H10.225H11.625V16.1563V19.5625H7.4375H3.25V16.1563V12.75H4.6875H6.125V13.8125ZM7.8625 13.6375L7.88125 14.5H7.46875H7.0625V13.625V12.7438L7.45625 12.7625L7.84375 12.7813L7.8625 13.6375ZM9.25 21.375V22.25H8.875H8.5V21.375V20.5H8.875H9.25V21.375ZM23.0625 24.0313C23.0625 25.1875 23.1063 25.35 23.4563 25.5625C23.625 25.6688 23.775 25.6875 24.4063 25.6875C25.0375 25.6875 25.1875 25.6688 25.3563 25.5625C25.7063 25.35 25.75 25.1875 25.75 24.0313V23H28.4063H31.0625V27.0313V31.0625H24.4063H17.75V27.0313V23H20.4063H23.0625V24.0313ZM24.8125 23.875V24.75H24.4063H24V23.875V23H24.4063H24.8125V23.875Z" fill="#2C459E"/>
</g>
<defs>
<clipPath id="clip0_69_306">
<rect width="32" height="32" fill="white"/>
</clipPath>
</defs>
</svg>
